<svg width="32" height="40" viewBox="0 0 32 40" fill="none" xmlns="http://www.w3.org/2000/svg">
<path d="M31.5203 8.59144L16.4615 0.120847C16.1749 -0.0402824 15.8251 -0.0402824 15.5385 0.120847L0.479718 8.59144C0.183435 8.75812 0 9.07172 0 9.41177V23.5294C0 32.3518 7.1776 39.5294 16 39.5294C24.8224 39.5294 32 32.3518 32 23.5294V9.41177C32.0001 9.07172 31.8168 8.75821 31.5203 8.59144ZM30.1177 23.5294C30.1177 31.3139 23.7846 37.6471 16.0001 37.6471C8.21562 37.6471 1.88245 31.3139 1.88245 23.5294V9.96226L16.0001 2.02108L30.1177 9.96226V23.5294Z" fill="white"/>
<path d="M10.8235 16.4704V18.8234H8.94118C8.42136 18.8234 8 19.2448 8 19.7645V23.9998C8 28.411 11.5888 31.9998 16 31.9998C20.4112 31.9998 24 28.411 24 23.9998V19.7645C24 19.2448 23.5785 18.8234 23.0588 18.8234H21.1765V16.4704C21.1765 15.0876 20.638 13.7878 19.6603 12.8101C18.6826 11.8324 17.3828 11.2939 16 11.2939C13.1457 11.2939 10.8235 13.6161 10.8235 16.4704ZM22.1176 23.9998C22.1176 27.3731 19.3733 30.1175 16 30.1175C12.6267 30.1175 9.88235 27.3731 9.88235 23.9998V20.7057H22.1176V23.9998ZM19.2941 16.4704V18.8234H12.7059V16.4704C12.7059 14.654 14.1836 13.1763 16 13.1763C16.8799 13.1763 17.7072 13.519 18.3293 14.1411C18.9514 14.7632 19.2941 15.5905 19.2941 16.4704Z" fill="white"/>
<path d="M15.9998 22.5879C15.48 22.5879 15.0586 23.0093 15.0586 23.5291V26.3526C15.0586 26.8723 15.48 27.2938 15.9998 27.2938C16.5196 27.2938 16.9409 26.8723 16.9409 26.3526V23.5291C16.9409 23.0093 16.5196 22.5879 15.9998 22.5879Z" fill="white"/>
</svg>
