<svg width="1633" height="805" viewBox="0 0 1633 805" fill="none" xmlns="http://www.w3.org/2000/svg">
<path d="M1463.59 229.258L1460.31 231.659C1460.69 231.434 1461.07 231.217 1461.46 230.993C1462.68 230.144 1463.91 229.293 1465.14 228.433C1464.62 228.71 1464.11 228.981 1463.59 229.258ZM1442.49 243.15C1441.65 243.787 1440.8 244.435 1439.97 245.067L1440.32 244.848L1443.52 242.562L1442.49 243.15ZM1454.19 234.255C1452.35 235.667 1450.52 237.04 1448.67 238.449C1449.67 237.872 1450.68 237.274 1451.68 236.694C1453.5 235.373 1455.34 234.013 1457.17 232.671C1456.18 233.196 1455.18 233.733 1454.19 234.255ZM1421.14 257.723C1420.44 258.264 1419.76 258.777 1419.06 259.315L1419.08 259.303C1419.89 258.71 1420.7 258.098 1421.51 257.5L1421.14 257.723ZM1432.65 248.718C1431.01 250.006 1429.36 251.308 1427.72 252.585C1428.5 252.112 1429.28 251.647 1430.06 251.172C1431.94 249.773 1433.8 248.422 1435.68 247.008C1434.67 247.575 1433.66 248.155 1432.65 248.718ZM1444.86 239.094C1442.56 240.929 1440.28 242.715 1437.98 244.527C1439.24 243.819 1440.49 243.107 1441.75 242.393C1444.06 240.645 1446.38 238.874 1448.7 237.114C1447.42 237.777 1446.14 238.434 1444.86 239.094ZM371.727 489.137L372.721 489.108C373.425 488.917 374.128 488.731 374.832 488.542L373.921 488.608C373.19 488.783 372.459 488.962 371.727 489.137ZM1398.93 273.313L1398.2 273.88C1398.54 273.632 1398.86 273.394 1399.19 273.146L1398.93 273.313ZM1411.11 263.67C1409.6 264.89 1408.09 266.082 1406.59 267.28C1407.2 266.891 1407.82 266.51 1408.44 266.119C1410.05 264.888 1411.68 263.636 1413.29 262.405C1412.56 262.833 1411.84 263.245 1411.11 263.67ZM1423.16 253.94C1420.97 255.712 1418.77 257.492 1416.58 259.253C1417.85 258.498 1419.13 257.724 1420.41 256.964C1422.58 255.283 1424.77 253.568 1426.95 251.851C1425.69 252.549 1424.42 253.247 1423.16 253.94ZM1435.49 243.885C1432.87 246.041 1430.27 248.174 1427.68 250.285C1429.1 249.504 1430.5 248.742 1431.92 247.955C1434.62 245.83 1437.31 243.732 1440.01 241.603C1438.5 242.373 1436.99 243.122 1435.49 243.885ZM363.627 491.098C364.212 491.105 364.796 491.121 365.382 491.129L368.478 490.274C367.917 490.293 367.358 490.306 366.796 490.327C365.74 490.584 364.683 490.839 363.627 491.098ZM358.469 491.054L359.615 491.061L361.741 490.531L360.752 490.571C359.99 490.732 359.23 490.889 358.469 491.054ZM353.699 491.033L353.859 491.032L354.534 490.884L353.699 491.033ZM1388.94 279.458C1387.52 280.6 1386.09 281.758 1384.67 282.908L1386.86 281.47C1388.26 280.387 1389.67 279.262 1391.07 278.159C1390.36 278.595 1389.65 279.023 1388.94 279.458ZM1401.17 269.447C1399.11 271.159 1397.05 272.879 1395.01 274.545C1396.06 273.896 1397.13 273.215 1398.18 272.561C1400.4 270.809 1402.61 269.078 1404.83 267.324C1403.61 268.028 1402.39 268.747 1401.17 269.447ZM1413.68 259.078L1405.97 265.473C1407.44 264.618 1408.9 263.775 1410.37 262.913C1412.88 260.911 1415.4 258.854 1417.93 256.81C1416.51 257.577 1415.1 258.317 1413.68 259.078ZM1426.18 248.558C1423.31 251.002 1420.44 253.455 1417.6 255.826C1419.21 254.96 1420.81 254.061 1422.41 253.184C1425.37 250.782 1428.31 248.426 1431.28 245.999C1429.58 246.85 1427.88 247.716 1426.18 248.558ZM355.767 493.058C356.512 493.102 357.258 493.141 358.002 493.189C359.259 492.834 360.516 492.476 361.772 492.126C361.038 492.117 360.3 492.118 359.565 492.11C358.3 492.427 357.034 492.739 355.767 493.058ZM350.681 492.765C351.263 492.794 351.843 492.83 352.426 492.862C353.456 492.6 354.485 492.341 355.516 492.083L353.788 492.082C352.752 492.309 351.717 492.535 350.681 492.765ZM345.689 492.532L346.84 492.586C347.558 492.423 348.277 492.26 348.995 492.101C348.652 492.103 348.311 492.103 347.968 492.105C347.208 492.25 346.449 492.388 345.689 492.532ZM341.011 492.344L341.264 492.354L342.123 492.185L342.058 492.185L341.011 492.344ZM1366.5 295.83C1365.23 296.875 1363.96 297.937 1362.71 298.968C1363.13 298.681 1363.56 298.385 1363.99 298.096C1365.46 296.93 1366.93 295.786 1368.41 294.615L1366.5 295.83ZM1378.86 285.59C1376.86 287.255 1374.87 288.893 1372.87 290.554C1373.9 289.892 1374.93 289.254 1375.96 288.589C1378 286.954 1380.06 285.274 1382.12 283.613C1381.04 284.265 1379.95 284.941 1378.86 285.59ZM1391.46 274.967C1389.03 277.04 1386.59 279.125 1384.18 281.144C1385.52 280.336 1386.85 279.519 1388.19 278.702C1390.74 276.631 1393.27 274.606 1395.83 272.507C1394.37 273.336 1392.92 274.147 1391.46 274.967ZM1404.25 264.12C1401.35 266.588 1398.48 269.009 1395.6 271.459C1397.21 270.542 1398.82 269.62 1400.43 268.692C1403.28 266.343 1406.15 263.954 1409.02 261.571C1407.43 262.415 1405.83 263.284 1404.25 264.12ZM1417.08 253.006C1413.98 255.71 1410.87 258.434 1407.81 261.059C1409.52 260.152 1411.23 259.236 1412.94 258.319C1416.05 255.719 1419.18 253.102 1422.31 250.453C1420.57 251.31 1418.82 252.158 1417.08 253.006ZM348.077 495.023C348.902 495.115 349.724 495.211 350.548 495.305C351.995 494.891 353.441 494.482 354.888 494.072C354.04 494.022 353.192 493.97 352.343 493.924C350.922 494.288 349.499 494.657 348.077 495.023ZM343.017 494.496C343.752 494.57 344.486 494.644 345.219 494.72C346.475 494.394 347.729 494.073 348.985 493.75C348.236 493.713 347.487 493.68 346.739 493.645C345.498 493.926 344.257 494.212 343.017 494.496ZM338.068 494.017C338.671 494.072 339.278 494.121 339.881 494.178C340.908 493.94 341.934 493.709 342.96 493.474C342.356 493.45 341.748 493.433 341.143 493.411L338.068 494.017ZM333.279 493.593C333.67 493.626 334.06 493.664 334.45 493.696C335.192 493.547 335.932 493.405 336.674 493.258L335.558 493.223C334.799 493.346 334.04 493.467 333.279 493.593ZM328.684 493.24L329.048 493.268C329.368 493.213 329.688 493.156 330.007 493.102L329.821 493.098C329.441 493.147 329.063 493.191 328.684 493.24ZM1344.01 312.617C1342.76 313.667 1341.54 314.645 1340.29 315.682C1340.57 315.494 1340.83 315.316 1341.11 315.127C1342.45 314.05 1343.81 312.946 1345.15 311.863C1344.77 312.111 1344.39 312.37 1344.01 312.617ZM1356.25 302.265C1354.41 303.825 1352.56 305.4 1350.72 306.941C1351.69 306.304 1352.65 305.675 1353.62 305.033C1355.56 303.452 1357.49 301.904 1359.44 300.298C1358.38 300.967 1357.32 301.6 1356.25 302.265ZM1369.21 291.296C1366.69 293.447 1364.22 295.51 1361.72 297.636C1363.06 296.796 1364.41 295.923 1365.75 295.075C1368.19 293.068 1370.64 291.03 1373.08 289.005C1371.79 289.774 1370.5 290.536 1369.21 291.296ZM1381.75 280.419C1379.01 282.803 1376.27 285.196 1373.55 287.533C1375.08 286.622 1376.6 285.743 1378.14 284.822C1380.94 282.479 1383.76 280.108 1386.59 277.711C1384.98 278.613 1383.37 279.528 1381.75 280.419ZM1394.99 268.925C1391.83 271.691 1388.71 274.377 1385.58 277.106C1387.29 276.149 1389.01 275.173 1390.73 274.203C1393.82 271.587 1396.92 268.955 1400.02 266.315C1398.34 267.192 1396.67 268.059 1394.99 268.925ZM1408.01 257.373C1404.7 260.321 1401.38 263.281 1398.1 266.165C1399.9 265.226 1401.7 264.307 1403.51 263.358C1406.78 260.56 1410.08 257.683 1413.39 254.804C1411.6 255.669 1409.8 256.518 1408.01 257.373ZM340.426 497.018C341.332 497.166 342.24 497.306 343.143 497.459C344.712 497 346.28 496.539 347.851 496.084C346.933 495.983 346.016 495.887 345.098 495.79C343.541 496.195 341.983 496.606 340.426 497.018ZM335.522 496.235C336.347 496.361 337.171 496.494 337.995 496.624C339.403 496.249 340.811 495.869 342.22 495.498C341.393 495.416 340.568 495.325 339.741 495.246C338.335 495.57 336.927 495.902 335.522 496.235ZM330.65 495.514C331.379 495.618 332.105 495.729 332.832 495.837C334.061 495.544 335.292 495.249 336.52 494.96C335.776 494.894 335.033 494.825 334.288 494.761C333.077 495.006 331.863 495.265 330.65 495.514ZM325.841 494.855C326.447 494.935 327.052 495.014 327.657 495.098L330.699 494.468C330.092 494.421 329.481 494.377 328.874 494.331C327.864 494.503 326.852 494.678 325.841 494.855ZM321.184 494.253C321.61 494.306 322.039 494.352 322.464 494.406C323.201 494.275 323.936 494.152 324.673 494.024C324.26 493.996 323.845 493.974 323.433 493.949C322.683 494.051 321.934 494.149 321.184 494.253ZM316.787 493.732L317.224 493.783C317.569 493.733 317.915 493.68 318.26 493.631L317.958 493.613L316.787 493.732ZM1320.73 330.249C1319.74 331.078 1318.75 331.917 1317.76 332.75C1318.14 332.475 1318.53 332.207 1318.92 331.931C1319.93 331.108 1320.96 330.261 1321.98 329.422C1321.56 329.704 1321.15 329.969 1320.73 330.249ZM1333.63 319.305C1331.86 320.832 1330.1 322.343 1328.35 323.834C1329.12 323.306 1329.9 322.771 1330.68 322.242C1332.56 320.693 1334.45 319.13 1336.32 317.586C1335.43 318.165 1334.53 318.73 1333.63 319.305ZM1346.22 308.444C1343.86 310.477 1341.5 312.524 1339.15 314.544C1340.51 313.662 1341.88 312.767 1343.24 311.875C1345.55 309.953 1347.89 307.96 1350.22 305.98C1348.89 306.799 1347.55 307.632 1346.22 308.444ZM1359.26 297.113C1356.54 299.504 1353.84 301.853 1351.14 304.201C1352.59 303.305 1354.04 302.422 1355.5 301.517L1363.8 294.491C1362.28 295.375 1360.77 296.238 1359.26 297.113ZM1372.31 285.58C1369.25 288.292 1366.19 291.003 1363.15 293.678C1364.91 292.649 1366.69 291.581 1368.46 290.54C1371.4 288.024 1374.39 285.41 1377.37 282.817C1375.68 283.742 1373.99 284.666 1372.31 285.58ZM1385.65 273.711C1382.34 276.681 1379.05 279.604 1375.77 282.52C1377.52 281.563 1379.26 280.626 1381.01 279.656C1384.35 276.764 1387.67 273.896 1391.02 270.98C1389.23 271.9 1387.44 272.802 1385.65 273.711ZM1399 261.643C1395.48 264.83 1391.97 268.01 1388.49 271.144C1390.4 270.167 1392.33 269.154 1394.24 268.162C1397.65 265.181 1401.12 262.078 1404.57 259.003C1402.71 259.883 1400.85 260.776 1399 261.643ZM342.423 501.263C388.874 512.537 433.117 530.381 478.197 548.574C643.59 615.323 820.368 686.59 1159.82 452.867M332.858 499.033C333.788 499.238 334.715 499.456 335.642 499.668C337.329 499.166 339.016 498.666 340.703 498.171C339.749 498.014 338.794 497.86 337.838 497.707C336.179 498.147 334.52 498.584 332.858 499.033ZM328.063 498.009C328.948 498.195 329.833 498.383 330.717 498.575C332.273 498.151 333.828 497.734 335.384 497.319C334.479 497.18 333.569 497.05 332.66 496.916C331.129 497.278 329.596 497.637 328.063 498.009ZM323.322 497.041C324.146 497.204 324.971 497.361 325.793 497.529C327.187 497.189 328.582 496.85 329.975 496.517C329.14 496.398 328.304 496.286 327.469 496.171C326.087 496.459 324.705 496.747 323.322 497.041ZM318.645 496.131C319.371 496.268 320.096 496.407 320.82 496.547C322.023 496.288 323.227 496.018 324.429 495.765C323.701 495.669 322.978 495.566 322.25 495.476C321.051 495.689 319.847 495.913 318.645 496.131ZM314.01 495.29C314.612 495.396 315.212 495.509 315.814 495.618L318.815 495.067C318.207 494.996 317.602 494.92 316.994 494.851L314.01 495.29ZM309.462 494.521L310.759 494.735C311.497 494.622 312.231 494.518 312.968 494.41L311.705 494.278C310.957 494.36 310.21 494.436 309.462 494.521ZM305.27 493.844L305.774 493.919L306.796 493.797L306.369 493.759C306.003 493.785 305.635 493.817 305.27 493.844ZM1297.73 347.969C1296.88 348.691 1296.03 349.427 1295.2 350.142L1295.42 349.979C1296.47 349.113 1297.51 348.264 1298.57 347.398L1297.73 347.969ZM1310.51 337.008C1308.69 338.565 1306.87 340.12 1305.05 341.687C1305.95 341.066 1306.86 340.412 1307.75 339.789C1309.5 338.325 1311.28 336.814 1313.05 335.325C1312.2 335.887 1311.35 336.45 1310.51 337.008ZM1323.14 326.016C1321 327.898 1318.86 329.797 1316.75 331.63C1317.82 330.916 1318.89 330.228 1319.96 329.508C1322.37 327.476 1324.75 325.49 1327.16 323.442C1325.83 324.29 1324.47 325.175 1323.14 326.016ZM1336.36 314.399L1328.29 321.49C1329.81 320.518 1331.35 319.536 1332.88 318.555C1335.46 316.346 1338.08 314.074 1340.68 311.816C1339.24 312.691 1337.8 313.532 1336.36 314.399ZM1349.5 302.702C1346.52 305.375 1343.55 308.047 1340.62 310.654C1342.22 309.683 1343.84 308.686 1345.45 307.703C1348.54 305.031 1351.59 302.43 1354.69 299.727C1352.96 300.72 1351.22 301.721 1349.5 302.702ZM1362.89 290.651C1359.63 293.591 1356.38 296.518 1353.13 299.437C1354.92 298.411 1356.71 297.394 1358.51 296.355C1361.68 293.579 1364.89 290.725 1368.09 287.884C1366.36 288.82 1364.63 289.726 1362.89 290.651ZM1376.4 278.36C1372.92 281.549 1369.46 284.72 1366.02 287.836C1367.86 286.847 1369.71 285.826 1371.56 284.825C1375.06 281.719 1378.54 278.659 1382.06 275.511C1380.17 276.462 1378.28 277.423 1376.4 278.36ZM1390.13 265.727C1386.45 269.121 1382.79 272.49 1379.13 275.847C1381.05 274.886 1382.97 273.921 1384.9 272.946C1388.48 269.738 1392.11 266.437 1395.74 263.148C1393.87 264.017 1392 264.87 1390.13 265.727ZM325.311 501.105C326.261 501.375 327.213 501.641 328.161 501.916C329.934 501.379 331.706 500.849 333.478 500.319C332.495 500.1 331.509 499.883 330.524 499.671C328.787 500.148 327.048 500.625 325.311 501.105ZM320.708 499.827C321.621 500.075 322.534 500.321 323.445 500.574C325.093 500.117 326.74 499.666 328.387 499.215C327.453 499.017 326.521 498.812 325.585 498.621C323.959 499.022 322.334 499.421 320.708 499.827ZM316.121 498.602C316.98 498.824 317.835 499.058 318.691 499.287C320.212 498.905 321.73 498.533 323.25 498.159C322.364 497.984 321.479 497.804 320.591 497.634C319.102 497.955 317.613 498.272 316.121 498.602ZM311.527 497.448C312.327 497.645 313.125 497.847 313.923 498.05C315.298 497.743 316.671 497.445 318.044 497.149C317.219 496.994 316.39 496.846 315.562 496.696C314.218 496.944 312.873 497.192 311.527 497.448ZM306.988 496.364C307.714 496.533 308.441 496.697 309.166 496.871C310.354 496.642 311.545 496.406 312.733 496.182C311.985 496.053 311.234 495.935 310.485 495.809C309.321 495.988 308.154 496.181 306.988 496.364ZM302.523 495.345C303.133 495.48 303.742 495.612 304.349 495.749C305.331 495.591 306.313 495.438 307.295 495.282C306.689 495.185 306.084 495.085 305.478 494.99C304.493 495.109 303.51 495.223 302.523 495.345ZM298.174 494.409C298.606 494.5 299.035 494.595 299.466 494.687C300.187 494.595 300.906 494.505 301.626 494.418C301.2 494.355 300.777 494.289 300.353 494.229C299.626 494.287 298.901 494.347 298.174 494.409ZM294.067 493.586L294.609 493.693L295.672 493.595L295.199 493.534L294.067 493.586ZM1274.79 365.933L1274.62 366.079L1274.83 365.908L1274.79 365.933ZM1286.97 355.301C1285.4 356.672 1283.82 358.061 1282.26 359.42C1282.94 358.934 1283.61 358.473 1284.3 357.985C1286.14 356.436 1287.94 354.953 1289.79 353.382C1288.85 354.014 1287.91 354.672 1286.97 355.301ZM1300.24 343.725C1298.01 345.683 1295.82 347.567 1293.6 349.517C1294.73 348.751 1295.85 347.99 1296.97 347.217C1299.11 345.392 1301.27 343.531 1303.42 341.69C1302.35 342.385 1301.3 343.037 1300.24 343.725ZM1313.19 332.18C1310.59 334.509 1307.98 336.851 1305.41 339.131C1306.84 338.193 1308.29 337.219 1309.73 336.274C1312.38 333.985 1315.01 331.724 1317.68 329.398C1316.18 330.334 1314.68 331.253 1313.19 332.18ZM1326.5 320.275C1323.54 322.936 1320.6 325.551 1317.63 328.209C1319.22 327.218 1320.79 326.27 1322.38 325.268C1325.35 322.669 1328.35 320.027 1331.34 317.393C1329.73 318.348 1328.11 319.331 1326.5 320.275ZM1339.9 308.083C1336.74 310.979 1333.57 313.896 1330.45 316.717C1332.17 315.701 1333.88 314.677 1335.6 313.65C1338.78 310.835 1341.95 308.03 1345.16 305.165C1343.4 306.155 1341.65 307.105 1339.9 308.083ZM1353.55 295.593C1350.08 298.777 1346.63 301.923 1343.16 305.098C1345.02 304.056 1346.88 303.001 1348.74 301.945C1352.15 298.897 1355.58 295.801 1359.01 292.703C1357.19 293.664 1355.37 294.643 1353.55 295.593ZM1367.31 282.816C1363.71 286.182 1360.11 289.568 1356.57 292.841C1358.42 291.861 1360.28 290.88 1362.14 289.888C1365.74 286.632 1369.35 283.369 1372.98 280.053C1371.09 280.986 1369.2 281.895 1367.31 282.816ZM1381.3 269.74C1377.47 273.333 1373.66 276.876 1369.84 280.453C1371.77 279.502 1373.71 278.56 1375.65 277.598C1379.4 274.163 1383.19 270.676 1386.97 267.181C1385.08 268.041 1383.19 268.89 1381.3 269.74ZM317.789 503.21C318.741 503.543 319.689 503.886 320.639 504.226C322.475 503.659 324.312 503.086 326.15 502.524C325.169 502.242 324.187 501.96 323.205 501.685C321.4 502.187 319.594 502.699 317.789 503.21ZM313.369 501.684C314.291 501.994 315.208 502.318 316.126 502.635C317.857 502.145 319.587 501.646 321.316 501.161C320.358 500.899 319.396 500.645 318.434 500.388C316.747 500.814 315.057 501.25 313.369 501.684ZM308.925 500.222C309.818 500.511 310.71 500.8 311.601 501.096C313.214 500.68 314.827 500.264 316.44 499.854C315.515 499.613 314.587 499.383 313.66 499.147C312.083 499.502 310.504 499.861 308.925 500.222ZM304.484 498.816C305.339 499.081 306.197 499.339 307.05 499.609C308.53 499.269 310.008 498.937 311.487 498.602C310.618 498.388 309.751 498.171 308.88 497.963C307.416 498.245 305.951 498.525 304.484 498.816ZM300.091 497.479C300.876 497.71 301.657 497.949 302.44 498.187C303.781 497.918 305.121 497.657 306.46 497.397C305.653 497.209 304.848 497.014 304.038 496.831C302.723 497.043 301.407 497.259 300.091 497.479ZM295.723 496.219C296.429 496.417 297.131 496.626 297.835 496.827C298.995 496.631 300.159 496.426 301.319 496.234C300.595 496.075 299.869 495.92 299.144 495.765C298.005 495.912 296.863 496.067 295.723 496.219ZM291.365 495.032C291.973 495.193 292.581 495.354 293.187 495.52C294.165 495.387 295.142 495.262 296.119 495.131C295.503 495.006 294.883 494.889 294.265 494.767C293.298 494.855 292.334 494.938 291.365 495.032ZM287.203 493.944C287.652 494.058 288.105 494.164 288.552 494.279C289.254 494.207 289.958 494.126 290.66 494.058C290.211 493.973 289.759 493.898 289.31 493.816C288.61 493.853 287.906 493.904 287.203 493.944ZM283.251 492.966L283.809 493.104C284.18 493.08 284.549 493.06 284.92 493.036C284.758 493.009 284.599 492.978 284.437 492.95L283.251 492.966ZM1250.73 384.971L1248.49 386.909L1248.67 386.777C1249.48 386.096 1250.31 385.379 1251.12 384.689L1250.73 384.971ZM1263.68 373.682C1262.31 374.9 1260.93 376.135 1259.57 377.32L1260.9 376.363C1262.44 375.049 1263.99 373.726 1265.53 372.424C1264.91 372.853 1264.3 373.255 1263.68 373.682ZM1276.68 362.146C1274.56 364.023 1272.43 365.919 1270.32 367.792C1271.55 366.938 1272.79 366.057 1274.02 365.197C1276.02 363.468 1278.06 361.672 1280.1 359.894C1278.95 360.654 1277.82 361.391 1276.68 362.146ZM1290.01 350.275C1287.39 352.633 1284.81 354.924 1282.21 357.248C1283.54 356.359 1284.87 355.464 1286.2 354.567C1288.85 352.254 1291.51 349.932 1294.15 347.62C1292.77 348.505 1291.39 349.398 1290.01 350.275ZM1303.1 338.387C1300.27 340.963 1297.43 343.548 1294.62 346.087C1296.24 345.052 1297.84 344.036 1299.46 342.988C1302.28 340.503 1305.13 337.955 1307.98 335.403C1306.35 336.399 1304.72 337.402 1303.1 338.387ZM1316.89 325.847C1313.64 328.831 1310.44 331.71 1307.2 334.664C1308.94 333.603 1310.68 332.508 1312.42 331.433C1315.58 328.614 1318.74 325.788 1321.91 322.953C1320.23 323.93 1318.56 324.882 1316.89 325.847ZM1330.3 313.399C1326.95 316.518 1323.6 319.645 1320.28 322.698C1322.1 321.641 1323.91 320.605 1325.73 319.533C1329.09 316.505 1332.48 313.413 1335.88 310.31C1334.02 311.334 1332.15 312.389 1330.3 313.399ZM1344.4 300.316C1340.72 303.749 1337.11 307.072 1333.45 310.479C1335.34 309.438 1337.24 308.381 1339.14 307.325C1342.71 304.066 1346.29 300.799 1349.87 297.508C1348.04 298.458 1346.22 299.379 1344.4 300.316ZM1358.23 287.209C1354.5 290.763 1350.75 294.334 1347.06 297.799C1348.97 296.813 1350.88 295.836 1352.8 294.835C1356.51 291.408 1360.27 287.92 1364.03 284.414C1362.09 285.349 1360.16 286.287 1358.23 287.209ZM1372.52 273.661C1368.54 277.45 1364.6 281.162 1360.62 284.941C1362.6 283.992 1364.58 283.013 1366.56 282.051C1370.46 278.412 1374.37 274.765 1378.29 271.084C1376.37 271.943 1374.44 272.813 1372.52 273.661ZM310.252 505.356C311.198 505.76 312.142 506.167 313.085 506.577C314.994 505.977 316.903 505.382 318.812 504.791C317.828 504.443 316.839 504.103 315.851 503.76C313.984 504.288 312.119 504.818 310.252 505.356ZM306.006 503.59C306.936 503.972 307.868 504.347 308.794 504.736C310.593 504.213 312.391 503.699 314.189 503.186C313.231 502.859 312.273 502.531 311.312 502.212C309.545 502.667 307.775 503.125 306.006 503.59ZM301.762 501.883C302.664 502.239 303.565 502.595 304.465 502.958C306.153 502.511 307.841 502.066 309.528 501.628C308.598 501.324 307.672 501.013 306.739 500.717C305.082 501.099 303.423 501.492 301.762 501.883ZM297.522 500.232C298.386 500.56 299.244 500.902 300.106 501.235C301.675 500.863 303.247 500.484 304.815 500.119C303.919 499.838 303.021 499.561 302.122 499.288C300.59 499.599 299.056 499.915 297.522 500.232ZM293.227 498.647C294.059 498.949 294.888 499.258 295.717 499.566C297.176 499.261 298.633 498.967 300.09 498.669C299.227 498.413 298.36 498.17 297.494 497.921C296.072 498.16 294.653 498.396 293.227 498.647ZM288.994 497.149C289.769 497.418 290.546 497.681 291.319 497.957C292.627 497.722 293.936 497.495 295.241 497.271C294.436 497.045 293.629 496.823 292.822 496.603C291.548 496.779 290.269 496.966 288.994 497.149ZM284.784 495.717C285.486 495.95 286.19 496.18 286.891 496.418C288.025 496.252 289.159 496.086 290.292 495.924C289.587 495.737 288.887 495.542 288.181 495.36C287.049 495.479 285.917 495.593 284.784 495.717ZM280.639 494.368C281.22 494.552 281.796 494.748 282.376 494.933C283.329 494.826 284.28 494.728 285.231 494.628C284.625 494.478 284.02 494.324 283.412 494.177C282.489 494.237 281.563 494.302 280.639 494.368ZM276.571 493.13L277.89 493.53C278.585 493.476 279.281 493.422 279.976 493.371L278.65 493.069L276.571 493.13ZM272.705 492L273.337 492.176L274.395 492.137L273.808 492.016L272.705 492ZM1240.23 392.374C1238.85 393.608 1237.47 394.833 1236.1 396.044L1237.57 394.957C1239 393.727 1240.45 392.459 1241.89 391.213C1241.34 391.605 1240.79 391.983 1240.23 392.374ZM1253.2 380.793C1251.07 382.696 1248.92 384.617 1246.79 386.519C1247.82 385.785 1248.89 385.003 1249.93 384.263C1252.15 382.324 1254.35 380.441 1256.59 378.496C1255.46 379.264 1254.33 380.031 1253.2 380.793ZM1266.29 369.007C1263.89 371.189 1261.5 373.373 1259.13 375.505C1260.4 374.637 1261.65 373.801 1262.93 372.925C1265.4 370.751 1267.91 368.512 1270.4 366.291C1269.04 367.187 1267.65 368.121 1266.29 369.007ZM1279.85 356.674C1277 359.271 1274.15 361.856 1271.31 364.444C1272.84 363.436 1274.38 362.418 1275.92 361.399C1278.78 358.856 1281.61 356.363 1284.47 353.813C1282.92 354.789 1281.39 355.71 1279.85 356.674ZM1293.37 344.217C1290.24 347.118 1287.11 350.035 1284.03 352.865C1285.75 351.778 1287.51 350.635 1289.24 349.534C1292.28 346.801 1295.36 343.982 1298.44 341.179C1296.75 342.198 1295.05 343.21 1293.37 344.217ZM1307.15 331.451C1303.76 334.609 1300.43 337.674 1297.06 340.797C1298.82 339.737 1300.58 338.705 1302.35 337.631C1305.77 334.521 1309.16 331.451 1312.59 328.331C1310.78 329.368 1308.96 330.427 1307.15 331.451ZM1321.01 318.387C1317.45 321.752 1313.89 325.124 1310.37 328.421C1312.28 327.328 1314.21 326.202 1316.13 325.094C1319.57 321.937 1323.07 318.666 1326.55 315.419C1324.7 316.42 1322.86 317.398 1321.01 318.387ZM1335.1 305.057C1331.34 308.638 1327.61 312.156 1323.89 315.68C1325.77 314.663 1327.65 313.672 1329.55 312.64C1333.33 309.128 1337.09 305.65 1340.88 302.118C1338.95 303.098 1337.02 304.092 1335.1 305.057ZM1349.35 291.402C1345.43 295.171 1341.51 298.927 1337.63 302.634C1339.63 301.621 1341.64 300.579 1343.64 299.552C1347.43 296 1351.28 292.327 1355.13 288.674C1353.2 289.588 1351.27 290.501 1349.35 291.402ZM1363.77 277.467C1359.72 281.406 1355.67 285.325 1351.66 289.188C1353.6 288.272 1355.54 287.364 1357.49 286.436C1361.54 282.595 1365.56 278.795 1369.62 274.932C1367.67 275.788 1365.72 276.624 1363.77 277.467ZM302.727 507.564C303.66 508.035 304.593 508.503 305.523 508.982C307.471 508.357 309.42 507.74 311.369 507.123C310.405 506.706 309.442 506.286 308.474 505.879C306.559 506.437 304.644 506.998 302.727 507.564ZM298.673 505.545C299.589 505.992 300.501 506.447 301.412 506.903C303.271 506.351 305.129 505.809 306.986 505.267C306.035 504.872 305.081 504.48 304.127 504.092C302.31 504.573 300.492 505.054 298.673 505.545ZM294.612 503.589C295.504 504.01 296.39 504.445 297.279 504.874C299.045 504.394 300.81 503.928 302.576 503.462C301.638 503.087 300.695 502.725 299.754 502.359C298.041 502.765 296.327 503.172 294.612 503.589ZM290.525 501.709C291.4 502.105 292.275 502.505 293.145 502.911C294.796 502.506 296.448 502.106 298.097 501.712C297.182 501.361 296.264 501.02 295.347 500.678C293.742 501.014 292.133 501.363 290.525 501.709ZM286.424 499.885C287.279 500.258 288.136 500.623 288.988 501.003C290.51 500.674 292.032 500.339 293.552 500.016C292.681 499.697 291.812 499.374 290.939 499.062C289.434 499.334 287.931 499.606 286.424 499.885ZM282.336 498.131C283.143 498.468 283.945 498.812 284.748 499.155C286.163 498.891 287.573 498.638 288.985 498.383C288.151 498.092 287.321 497.796 286.484 497.513C285.103 497.714 283.721 497.918 282.336 498.131ZM278.28 496.462C279.028 496.762 279.77 497.076 280.515 497.382C281.784 497.184 283.053 496.982 284.321 496.792C283.537 496.532 282.751 496.277 281.964 496.024C280.738 496.165 279.508 496.315 278.28 496.462ZM274.169 494.861C274.861 495.126 275.553 495.393 276.242 495.663C277.365 495.525 278.487 495.396 279.606 495.263C278.891 495.039 278.169 494.829 277.452 494.611C276.359 494.692 275.266 494.77 274.169 494.861ZM270.19 493.375C270.781 493.59 271.374 493.796 271.963 494.015C272.871 493.935 273.782 493.847 274.688 493.773C274.088 493.596 273.486 493.426 272.884 493.252C271.988 493.287 271.087 493.335 270.19 493.375ZM266.286 491.971C266.725 492.123 267.16 492.283 267.599 492.438C268.28 492.403 268.96 492.378 269.642 492.345C269.206 492.226 268.776 492.098 268.339 491.98C267.654 491.98 266.973 491.969 266.286 491.971ZM262.598 490.731L263.22 490.941L264.254 490.927L263.66 490.773C263.308 490.758 262.952 490.746 262.598 490.731ZM1216.45 411.549C1215.1 412.758 1213.74 413.987 1212.41 415.172C1212.99 414.741 1213.58 414.287 1214.16 413.855C1215.54 412.661 1216.94 411.422 1218.33 410.204L1216.45 411.549ZM1229.41 399.91L1223.47 405.247C1224.42 404.561 1225.35 403.909 1226.31 403.217C1228.45 401.345 1230.58 399.488 1232.72 397.607C1231.62 398.367 1230.51 399.156 1229.41 399.91ZM1242.64 387.905C1240.31 390.036 1237.98 392.185 1235.67 394.272C1236.97 393.367 1238.27 392.466 1239.58 391.553C1241.91 389.486 1244.27 387.364 1246.62 385.26C1245.29 386.153 1243.97 387.022 1242.64 387.905ZM1256.33 375.398C1253.46 378.034 1250.63 380.604 1247.77 383.221C1249.35 382.159 1250.95 381.056 1252.54 379.983C1255.34 377.469 1258.12 374.998 1260.95 372.448C1259.4 373.445 1257.87 374.412 1256.33 375.398ZM1269.77 362.919C1266.71 365.762 1263.66 368.615 1260.64 371.408C1262.29 370.337 1263.94 369.293 1265.61 368.21C1268.7 365.403 1271.83 362.556 1274.94 359.712C1273.22 360.78 1271.49 361.866 1269.77 362.919ZM1283.64 349.976C1280.3 353.108 1277 356.175 1273.69 359.265C1275.51 358.143 1277.32 357.026 1279.15 355.888C1282.4 352.906 1285.68 349.891 1288.97 346.849C1287.19 347.903 1285.41 348.937 1283.64 349.976ZM1297.58 336.789C1294.02 340.167 1290.46 343.535 1286.92 346.865C1288.83 345.745 1290.75 344.569 1292.66 343.432C1296.18 340.178 1299.7 336.918 1303.23 333.637C1301.34 334.697 1299.46 335.744 1297.58 336.789ZM1311.66 323.366C1307.96 326.911 1304.28 330.431 1300.62 333.911C1302.56 332.826 1304.49 331.771 1306.43 330.67C1310.06 327.279 1313.75 323.784 1317.43 320.308C1315.51 321.33 1313.58 322.358 1311.66 323.366ZM1326.04 309.55C1322.12 313.328 1318.23 317.062 1314.33 320.802C1316.31 319.754 1318.31 318.668 1320.3 317.603C1324.17 313.948 1328.02 310.34 1331.92 306.635C1329.96 307.615 1328 308.585 1326.04 309.55ZM1340.46 295.522C1336.45 299.439 1332.44 303.365 1328.49 307.193C1330.45 306.217 1332.41 305.26 1334.38 304.272C1338.33 300.511 1342.32 296.673 1346.31 292.834C1344.36 293.744 1342.41 294.625 1340.46 295.522ZM1355.14 281.168C1350.94 285.3 1346.79 289.332 1342.61 293.422C1344.61 292.497 1346.62 291.559 1348.62 290.621C1352.74 286.662 1356.86 282.684 1361.01 278.66C1359.06 279.502 1357.1 280.338 1355.14 281.168ZM295.201 509.821C296.108 510.358 297.008 510.905 297.91 511.452C299.905 510.801 301.899 510.144 303.893 509.5C302.944 509.014 301.991 508.538 301.038 508.061C299.094 508.64 297.148 509.231 295.201 509.821ZM291.335 507.563C292.231 508.079 293.123 508.602 294.015 509.127C295.919 508.551 297.823 507.967 299.726 507.399C298.786 506.933 297.842 506.48 296.9 506.024C295.046 506.53 293.191 507.048 291.335 507.563ZM287.436 505.368C288.326 505.862 289.218 506.354 290.104 506.857C291.91 506.354 293.715 505.856 295.522 505.359C294.601 504.919 293.679 504.481 292.755 504.049C290.983 504.485 289.21 504.921 287.436 505.368ZM283.535 503.238C284.405 503.704 285.278 504.169 286.143 504.646C287.857 504.212 289.569 503.793 291.28 503.373C290.379 502.958 289.481 502.537 288.576 502.131C286.898 502.495 285.218 502.861 283.535 503.238ZM279.639 501.178C280.485 501.614 281.325 502.063 282.167 502.509C283.777 502.147 285.385 501.787 286.992 501.436C286.103 501.043 285.211 500.654 284.317 500.27C282.76 500.563 281.198 500.874 279.639 501.178ZM275.699 499.182C276.523 499.59 277.341 500.011 278.16 500.428C279.66 500.133 281.161 499.839 282.66 499.553C281.802 499.189 280.937 498.844 280.075 498.489C278.617 498.718 277.161 498.942 275.699 499.182ZM271.771 497.278C272.555 497.652 273.339 498.024 274.119 498.404C275.501 498.175 276.878 497.958 278.256 497.74C277.433 497.408 276.607 497.085 275.782 496.76C274.447 496.925 273.109 497.103 271.771 497.278ZM267.832 495.439C268.579 495.779 269.327 496.114 270.071 496.462C271.296 496.298 272.523 496.13 273.747 495.973C272.995 495.684 272.246 495.389 271.491 495.106C270.272 495.217 269.055 495.321 267.832 495.439ZM263.96 493.696C264.617 493.983 265.269 494.282 265.922 494.575C267.012 494.465 268.096 494.368 269.181 494.269C268.486 494.017 267.795 493.762 267.098 493.516C266.054 493.569 265.006 493.634 263.96 493.696ZM260.079 492.047C260.653 492.286 261.224 492.534 261.797 492.776C262.692 492.72 263.588 492.663 264.482 492.61C263.891 492.408 263.298 492.21 262.706 492.011C261.83 492.024 260.956 492.031 260.079 492.047ZM256.313 490.521C256.745 490.692 257.18 490.862 257.611 491.037C258.275 491.02 258.939 491.002 259.601 490.988C259.144 490.843 258.682 490.705 258.223 490.561C257.589 490.541 256.948 490.536 256.313 490.521ZM252.77 489.135C252.993 489.22 253.217 489.297 253.441 489.383C253.788 489.388 254.133 489.398 254.481 489.404C254.263 489.34 254.044 489.282 253.826 489.218C253.474 489.191 253.122 489.161 252.77 489.135ZM1192.36 431.178C1191.09 432.317 1189.81 433.477 1188.56 434.604C1189.05 434.233 1189.53 433.886 1190.02 433.514C1191.39 432.317 1192.79 431.073 1194.17 429.855C1193.57 430.292 1192.96 430.743 1192.36 431.178ZM1205.51 419.328C1203.65 421.013 1201.82 422.644 1199.97 424.32C1200.91 423.631 1201.85 422.956 1202.79 422.263C1204.72 420.554 1206.64 418.88 1208.58 417.163C1207.56 417.88 1206.53 418.614 1205.51 419.328ZM1218.92 407.064C1216.57 409.22 1214.21 411.39 1211.88 413.517C1213.2 412.586 1214.52 411.63 1215.84 410.689C1218.14 408.639 1220.46 406.543 1222.77 404.467C1221.48 405.348 1220.21 406.192 1218.92 407.064ZM1232.53 394.544C1229.7 397.164 1226.91 399.722 1224.11 402.306C1225.65 401.251 1227.21 400.158 1228.76 399.09C1231.55 396.577 1234.33 394.075 1237.13 391.52C1235.6 392.534 1234.06 393.544 1232.53 394.544ZM1245.97 382.012C1242.99 384.788 1240.02 387.569 1237.06 390.319C1238.71 389.233 1240.34 388.18 1241.99 387.08C1245.04 384.299 1248.11 381.494 1251.17 378.692C1249.44 379.788 1247.69 380.931 1245.97 382.012ZM1259.95 368.865C1256.68 371.965 1253.41 375.049 1250.17 378.09C1251.99 376.936 1253.83 375.76 1255.65 374.59C1258.81 371.678 1262.01 368.699 1265.21 365.722C1263.45 366.793 1261.71 367.809 1259.95 368.865ZM1273.99 355.556C1270.45 358.921 1266.93 362.251 1263.41 365.589C1265.29 364.449 1267.18 363.287 1269.07 362.128C1272.6 358.839 1276.11 355.601 1279.66 352.275C1277.77 353.374 1275.88 354.473 1273.99 355.556ZM1288.08 342.031C1284.44 345.54 1280.8 349.065 1277.21 352.496C1279.12 351.391 1281.02 350.3 1282.94 349.179C1286.54 345.793 1290.19 342.335 1293.83 338.882C1291.91 339.94 1289.99 340.988 1288.08 342.031ZM1302.52 328.1C1298.6 331.902 1294.74 335.613 1290.85 339.364C1292.85 338.269 1294.86 337.119 1296.87 336.005C1300.68 332.384 1304.5 328.763 1308.35 325.083C1306.4 326.096 1304.46 327.102 1302.52 328.1ZM1316.96 313.981C1312.97 317.893 1308.99 321.795 1305.03 325.639C1307.01 324.618 1308.98 323.612 1310.96 322.574C1314.91 318.783 1318.88 314.966 1322.87 311.12C1320.9 312.085 1318.93 313.03 1316.96 313.981ZM1331.62 299.561C1327.47 303.665 1323.35 307.724 1319.24 311.759C1321.26 310.774 1323.29 309.763 1325.32 308.763C1329.38 304.836 1333.48 300.842 1337.59 296.831C1335.6 297.739 1333.61 298.667 1331.62 299.561ZM1346.5 284.8C1342.22 289.067 1337.96 293.279 1333.71 297.489C1335.72 296.579 1337.73 295.655 1339.74 294.731C1343.99 290.581 1348.21 286.48 1352.49 282.282C1350.5 283.125 1348.5 283.969 1346.5 284.8ZM287.64 512.127C288.52 512.735 289.398 513.347 290.273 513.965C292.309 513.288 294.343 512.619 296.376 511.953C295.453 511.4 294.53 510.848 293.603 510.304C291.616 510.906 289.629 511.512 287.64 512.127ZM283.965 509.636C284.842 510.223 285.724 510.802 286.596 511.399C288.537 510.798 290.478 510.202 292.417 509.612C291.506 509.08 290.597 508.543 289.679 508.022C287.776 508.554 285.871 509.092 283.965 509.636ZM280.275 507.204C281.142 507.765 282.007 508.329 282.869 508.901C284.723 508.371 286.576 507.842 288.428 507.322C287.521 506.811 286.615 506.3 285.705 505.8C283.897 506.259 282.085 506.735 280.275 507.204ZM276.564 504.827C277.419 505.362 278.267 505.913 279.117 506.46C280.882 505.998 282.649 505.541 284.413 505.088C283.518 504.602 282.619 504.128 281.72 503.652C280.003 504.039 278.285 504.427 276.564 504.827ZM272.826 502.534C273.662 503.04 274.497 503.554 275.33 504.069C277.007 503.677 278.681 503.301 280.354 502.923C279.471 502.46 278.582 502.009 277.695 501.557C276.073 501.875 274.451 502.203 272.826 502.534ZM269.07 500.31C269.897 500.792 270.725 501.268 271.549 501.76C273.105 501.438 274.663 501.116 276.216 500.807C275.361 500.376 274.506 499.945 273.646 499.524C272.123 499.781 270.596 500.044 269.07 500.31ZM265.302 498.156C266.1 498.605 266.901 499.051 267.696 499.508C269.15 499.252 270.602 499.006 272.055 498.76C271.23 498.361 270.407 497.959 269.578 497.569C268.154 497.76 266.729 497.953 265.302 498.156ZM261.557 496.086C262.314 496.493 263.064 496.916 263.817 497.332C265.153 497.139 266.488 496.945 267.821 496.761C267.023 496.394 266.224 496.033 265.421 495.674C264.136 495.806 262.847 495.947 261.557 496.086ZM257.76 494.096C258.475 494.465 259.187 494.841 259.898 495.217C261.113 495.081 262.325 494.958 263.538 494.829C262.785 494.499 262.024 494.185 261.268 493.864C260.099 493.937 258.932 494.012 257.76 494.096ZM254.004 492.21C254.662 492.535 255.322 492.853 255.977 493.184C257.019 493.104 258.066 493.015 259.106 492.943C258.429 492.663 257.749 492.39 257.069 492.115C256.049 492.143 255.028 492.176 254.004 492.21ZM250.293 490.418C250.855 490.683 251.419 490.944 251.978 491.212C252.851 491.177 253.719 491.158 254.589 491.131C254.014 490.905 253.444 490.67 252.867 490.449C252.01 490.436 251.153 490.425 250.293 490.418ZM246.702 488.76C247.122 488.947 247.539 489.148 247.958 489.339C248.592 489.34 249.228 489.338 249.861 489.342C249.43 489.184 249.002 489.021 248.571 488.866C247.947 488.829 247.326 488.793 246.702 488.76ZM243.212 487.243L243.857 487.521C244.177 487.535 244.499 487.543 244.817 487.558L244.154 487.333C243.842 487.299 243.526 487.276 243.212 487.243ZM1168.05 451.193C1167 452.131 1165.95 453.085 1164.91 454.023C1165.37 453.675 1165.82 453.337 1166.28 452.987C1167.39 452.003 1168.53 450.988 1169.66 449.995C1169.13 450.387 1168.58 450.803 1168.05 451.193ZM1181.68 438.833C1179.88 440.482 1178.1 442.1 1176.32 443.723C1177.22 443.051 1178.13 442.372 1179.04 441.695C1180.9 440.042 1182.72 438.453 1184.59 436.781C1183.62 437.479 1182.66 438.14 1181.68 438.833ZM1195.05 426.55C1192.65 428.751 1190.25 430.968 1187.85 433.166C1189.16 432.227 1190.5 431.227 1191.81 430.28C1194.15 428.171 1196.52 426.032 1198.87 423.914C1197.59 424.799 1196.32 425.673 1195.05 426.55ZM1208.48 414.097C1205.85 416.556 1203.22 419.021 1200.62 421.427C1202.06 420.426 1203.47 419.475 1204.92 418.464C1207.63 416.003 1210.36 413.497 1213.1 410.984C1211.57 412.015 1210.01 413.077 1208.48 414.097ZM1222.27 401.217C1219.27 404.025 1216.3 406.789 1213.32 409.578C1214.97 408.468 1216.62 407.358 1218.28 406.234C1221.26 403.496 1224.23 400.784 1227.23 398.025C1225.57 399.1 1223.92 400.156 1222.27 401.217ZM1236.13 388.083C1232.88 391.175 1229.63 394.278 1226.42 397.31C1228.22 396.138 1230.06 394.91 1231.88 393.723C1235.03 390.801 1238.22 387.811 1241.41 384.832C1239.64 385.932 1237.89 387 1236.13 388.083ZM1250.19 374.704C1246.71 378.037 1243.27 381.302 1239.81 384.59C1241.64 383.45 1243.46 382.359 1245.3 381.203C1248.79 377.927 1252.29 374.664 1255.82 371.338C1253.94 372.456 1252.05 373.601 1250.19 374.704ZM1264.39 361.014C1260.74 364.536 1257.1 368.05 1253.49 371.522C1255.41 370.379 1257.34 369.226 1259.27 368.065C1262.85 364.678 1266.45 361.26 1270.06 357.829C1268.16 358.911 1266.28 359.948 1264.39 361.014ZM1278.76 347.047C1274.93 350.795 1271.1 354.52 1267.3 358.198C1269.29 357.071 1271.3 355.906 1273.3 354.76C1277.04 351.183 1280.83 347.544 1284.62 343.892C1282.67 344.95 1280.71 346.006 1278.76 347.047ZM1293.35 332.777C1289.36 336.696 1285.39 340.567 1281.42 344.445C1283.41 343.378 1285.39 342.323 1287.38 341.238C1291.34 337.421 1295.28 333.645 1299.27 329.783C1297.29 330.794 1295.32 331.782 1293.35 332.777ZM1307.99 318.28C1303.9 322.354 1299.79 326.447 1295.75 330.43C1297.76 329.407 1299.79 328.349 1301.81 327.309C1305.84 323.4 1309.91 319.401 1313.98 315.409C1311.99 316.367 1309.99 317.337 1307.99 318.28ZM1322.95 303.403C1318.67 307.677 1314.45 311.866 1310.2 316.088C1312.22 315.127 1314.23 314.162 1316.25 313.186C1320.45 309.068 1324.65 304.958 1328.88 300.778C1326.9 301.663 1324.93 302.53 1322.95 303.403ZM1337.95 288.315C1333.58 292.718 1329.23 297.102 1324.92 301.422C1326.92 300.536 1328.91 299.669 1330.91 298.771C1335.21 294.515 1339.54 290.223 1343.88 285.895C1341.91 286.714 1339.93 287.508 1337.95 288.315ZM280.062 514.494C280.915 515.174 281.766 515.85 282.614 516.538C284.677 515.839 286.738 515.147 288.801 514.459C287.911 513.834 287.025 513.209 286.131 512.598C284.109 513.225 282.086 513.855 280.062 514.494ZM276.583 511.758C277.429 512.412 278.272 513.074 279.112 513.738C281.098 513.11 283.083 512.493 285.067 511.878C284.179 511.275 283.289 510.68 282.396 510.086C280.46 510.638 278.522 511.19 276.583 511.758ZM273.1 509.092C273.935 509.719 274.762 510.364 275.593 511.001C277.497 510.442 279.398 509.896 281.301 509.351C280.415 508.767 279.522 508.201 278.631 507.629C276.789 508.11 274.944 508.599 273.1 509.092ZM269.561 506.494C270.396 507.101 271.229 507.711 272.059 508.327C273.864 507.841 275.67 507.356 277.473 506.884C276.599 506.327 275.721 505.776 274.84 505.228C273.082 505.644 271.322 506.069 269.561 506.494ZM265.993 503.954C266.826 504.538 267.662 505.115 268.491 505.71C270.202 505.295 271.911 504.887 273.619 504.479C272.761 503.953 271.907 503.419 271.044 502.903C269.36 503.248 267.679 503.592 265.993 503.954ZM262.441 501.5C263.25 502.048 264.058 502.602 264.862 503.161C266.488 502.81 268.111 502.471 269.732 502.135C268.879 501.63 268.024 501.131 267.168 500.637C265.595 500.916 264.018 501.21 262.441 501.5ZM258.857 499.106C259.651 499.623 260.435 500.16 261.224 500.687C262.745 500.405 264.268 500.117 265.787 499.843C264.956 499.371 264.119 498.914 263.284 498.454C261.809 498.668 260.336 498.878 258.857 499.106ZM255.243 496.811C256.01 497.291 256.775 497.777 257.538 498.268C258.961 498.046 260.381 497.839 261.8 497.63C260.985 497.188 260.163 496.755 259.343 496.322C257.98 496.475 256.611 496.645 255.243 496.811ZM251.601 494.58C252.352 495.031 253.107 495.473 253.854 495.935C255.138 495.775 256.425 495.613 257.706 495.463C256.943 495.067 256.18 494.669 255.412 494.28C254.143 494.378 252.875 494.47 251.601 494.58ZM248.007 492.458C248.7 492.857 249.39 493.258 250.079 493.665C251.246 493.56 252.41 493.465 253.574 493.373C252.845 493.012 252.118 492.645 251.385 492.292C250.263 492.338 249.134 492.404 248.007 492.458ZM244.394 490.41C245.028 490.761 245.655 491.127 246.288 491.484C247.307 491.429 248.323 491.382 249.341 491.333C248.681 491.024 248.019 490.717 247.356 490.415C246.368 490.413 245.385 490.402 244.394 490.41ZM240.824 488.505C241.37 488.791 241.914 489.081 242.457 489.374C243.297 489.362 244.138 489.342 244.974 489.336C244.4 489.082 243.82 488.839 243.243 488.59C242.438 488.557 241.63 488.531 240.824 488.505ZM237.303 486.696C237.731 486.91 238.161 487.117 238.588 487.334C239.224 487.352 239.853 487.381 240.487 487.402C240.035 487.215 239.578 487.041 239.125 486.858C238.518 486.803 237.912 486.745 237.303 486.696ZM234.092 485.101C234.297 485.199 234.497 485.305 234.703 485.404L235.654 485.471C235.45 485.393 235.248 485.307 235.045 485.229L234.092 485.101ZM1144.21 470.95L1141.05 473.804L1142.22 472.9C1143.29 471.955 1144.37 470.992 1145.44 470.047C1145.02 470.355 1144.62 470.644 1144.21 470.95ZM1157.56 458.748C1155.78 460.388 1153.99 462.046 1152.23 463.658C1153.17 462.954 1154.12 462.213 1155.06 461.505C1156.84 459.919 1158.62 458.31 1160.41 456.694C1159.46 457.386 1158.51 458.062 1157.56 458.748ZM1171.04 446.348C1168.7 448.514 1166.4 450.611 1164.07 452.758C1165.23 451.915 1166.36 451.124 1167.52 450.273C1169.95 448.078 1172.37 445.898 1174.8 443.691C1173.55 444.574 1172.29 445.473 1171.04 446.348ZM1184.32 433.941C1181.78 436.317 1179.23 438.709 1176.71 441.056C1178.18 440.018 1179.64 438.999 1181.11 437.951C1183.68 435.606 1186.28 433.202 1188.87 430.817C1187.36 431.849 1185.82 432.92 1184.32 433.941ZM1198.32 420.787C1195.34 423.605 1192.39 426.375 1189.44 429.148C1191.09 428.018 1192.77 426.85 1194.43 425.704C1197.34 423.018 1200.24 420.359 1203.17 417.634C1201.54 418.706 1199.94 419.725 1198.32 420.787ZM1212.2 407.595C1208.96 410.685 1205.71 413.772 1202.49 416.831C1204.26 415.66 1206.05 414.466 1207.83 413.278C1211.04 410.288 1214.27 407.263 1217.5 404.24C1215.73 405.365 1213.96 406.485 1212.2 407.595ZM1226.14 394.24C1222.78 397.476 1219.43 400.711 1216.11 403.879C1217.95 402.714 1219.77 401.577 1221.61 400.395C1224.98 397.228 1228.38 393.999 1231.79 390.763C1229.91 391.912 1228.01 393.107 1226.14 394.24ZM1240.6 380.288C1236.92 383.853 1233.28 387.342 1229.63 390.868C1231.56 389.688 1233.52 388.472 1235.46 387.274C1239.05 383.859 1242.62 380.486 1246.24 377.032C1244.35 378.14 1242.48 379.197 1240.6 380.288ZM1254.88 366.319C1251.11 370.019 1247.33 373.728 1243.61 377.354C1245.57 376.212 1247.52 375.073 1249.49 373.913C1253.22 370.337 1257 366.68 1260.77 363.03C1258.81 364.128 1256.84 365.24 1254.88 366.319ZM1269.52 351.934C1265.56 355.85 1261.63 359.705 1257.7 363.561C1259.69 362.452 1261.69 361.343 1263.69 360.217C1267.58 356.456 1271.47 352.686 1275.4 348.862C1273.43 349.904 1271.48 350.908 1269.52 351.934ZM1284.23 337.337C1280.13 341.42 1276.04 345.48 1271.97 349.501C1273.99 348.436 1276.02 347.344 1278.05 346.261C1282.1 342.312 1286.16 338.337 1290.24 334.331C1288.24 335.335 1286.23 336.349 1284.23 337.337ZM1299.15 322.41C1294.93 326.645 1290.73 330.87 1286.56 335.024C1288.58 334.017 1290.61 333.008 1292.64 331.984C1296.76 327.931 1300.92 323.796 1305.09 319.657C1303.11 320.591 1301.13 321.489 1299.15 322.41ZM1314.25 307.212C1309.88 311.628 1305.56 315.963 1301.22 320.325C1303.24 319.384 1305.25 318.447 1307.28 317.489C1311.6 313.193 1315.9 308.945 1320.27 304.59C1318.26 305.47 1316.26 306.346 1314.25 307.212ZM1329.42 291.775C1324.97 296.314 1320.52 300.865 1316.14 305.301C1318.17 304.419 1320.2 303.504 1322.23 302.61C1326.59 298.252 1331 293.802 1335.41 289.349C1333.41 290.16 1331.41 290.974 1329.42 291.775ZM272.48 516.925C273.293 517.67 274.102 518.424 274.91 519.18C277.003 518.458 279.096 517.731 281.188 517.017C280.328 516.321 279.461 515.639 278.597 514.952C276.559 515.602 274.519 516.267 272.48 516.925ZM269.195 513.954C270.006 514.676 270.812 515.413 271.618 516.146C273.63 515.496 275.641 514.843 277.652 514.201C276.797 513.528 275.936 512.867 275.076 512.206C273.117 512.785 271.157 513.366 269.195 513.954ZM265.866 511.05C266.682 511.751 267.494 512.456 268.303 513.169C270.233 512.588 272.16 512.017 274.088 511.449C273.238 510.8 272.387 510.153 271.532 509.516C269.644 510.022 267.757 510.529 265.866 511.05ZM262.536 508.223C263.344 508.899 264.153 509.57 264.956 510.256C266.803 509.746 268.647 509.247 270.491 508.75C269.643 508.125 268.798 507.495 267.946 506.882C266.144 507.32 264.34 507.772 262.536 508.223ZM259.173 505.452C259.977 506.102 260.776 506.76 261.574 507.422C263.333 506.98 265.093 506.534 266.849 506.104C266.007 505.504 265.161 504.911 264.313 504.322C262.601 504.694 260.888 505.068 259.173 505.452ZM255.798 502.759C256.586 503.376 257.367 504.008 258.152 504.637C259.832 504.259 261.508 503.894 263.185 503.53C262.347 502.954 261.5 502.396 260.658 501.831C259.041 502.134 257.42 502.442 255.798 502.759ZM252.374 500.148C253.158 500.738 253.942 501.332 254.721 501.933C256.296 501.623 257.87 501.313 259.442 501.016C258.62 500.474 257.796 499.935 256.968 499.402C255.439 499.645 253.907 499.895 252.374 500.148ZM248.93 497.609C249.702 498.168 250.476 498.719 251.244 499.289C252.718 499.042 254.19 498.808 255.661 498.572C254.863 498.065 254.067 497.549 253.264 497.052C251.822 497.231 250.377 497.416 248.93 497.609ZM245.487 495.155C246.233 495.674 246.975 496.201 247.715 496.729C249.084 496.543 250.454 496.356 251.82 496.183C251.04 495.709 250.263 495.237 249.481 494.774C248.15 494.898 246.82 495.023 245.487 495.155ZM242.034 492.79C242.74 493.261 243.437 493.751 244.141 494.232C245.411 494.102 246.677 493.987 247.943 493.869C247.187 493.43 246.423 493.005 245.662 492.574C244.455 492.639 243.245 492.713 242.034 492.79ZM238.536 490.518C239.214 490.952 239.89 491.388 240.564 491.831C241.692 491.754 242.823 491.668 243.947 491.602C243.243 491.211 242.531 490.838 241.823 490.457C240.727 490.476 239.635 490.491 238.536 490.518ZM235.074 488.356C235.692 488.733 236.316 489.1 236.931 489.485C237.917 489.455 238.898 489.439 239.88 489.422C239.227 489.079 238.575 488.736 237.919 488.4C236.974 488.376 236.021 488.372 235.074 488.356ZM231.639 486.291C232.177 486.605 232.713 486.926 233.248 487.246C234.056 487.254 234.861 487.266 235.666 487.278C235.119 487.007 234.576 486.727 234.027 486.462C233.229 486.407 232.438 486.34 231.639 486.291ZM228.315 484.399C228.714 484.621 229.11 484.852 229.508 485.078C230.088 485.108 230.674 485.127 231.253 485.163C230.837 484.969 230.421 484.774 230.004 484.584C229.443 484.518 228.878 484.461 228.315 484.399ZM225.053 482.633L225.711 482.983C226.016 483.012 226.316 483.051 226.622 483.083L225.938 482.79C225.642 482.741 225.349 482.683 225.053 482.633ZM1120.28 490.954C1119.12 492.017 1117.99 493.029 1116.84 494.081L1117.6 493.484L1121.31 490.186L1120.28 490.954ZM1133.31 478.962C1131.52 480.6 1129.73 482.259 1127.95 483.895C1128.8 483.247 1129.64 482.62 1130.5 481.968C1132.33 480.321 1134.19 478.625 1136.03 476.956C1135.13 477.624 1134.21 478.301 1133.31 478.962ZM1146.61 466.645C1144.51 468.605 1142.42 470.555 1140.35 472.476C1141.48 471.641 1142.6 470.832 1143.73 469.989C1146.01 467.925 1148.25 465.904 1150.54 463.812C1149.24 464.742 1147.9 465.725 1146.61 466.645ZM1160.38 453.756C1157.79 456.179 1155.21 458.593 1152.63 461.007C1154.09 459.961 1155.56 458.898 1157.02 457.84C1159.52 455.547 1162.04 453.223 1164.54 450.921C1163.14 451.89 1161.77 452.795 1160.38 453.756ZM1174.18 440.698C1171.24 443.494 1168.3 446.308 1165.4 449.044C1167.07 447.884 1168.78 446.649 1170.45 445.476C1173.29 442.847 1176.16 440.155 1179.03 437.466C1177.41 438.556 1175.8 439.622 1174.18 440.698ZM1188.16 427.398C1184.95 430.466 1181.8 433.45 1178.62 436.482C1180.32 435.336 1182 434.247 1183.71 433.086C1186.97 430.03 1190.21 427.02 1193.49 423.931C1191.72 425.082 1189.93 426.263 1188.16 427.398ZM1202.17 413.884C1198.81 417.131 1195.45 420.38 1192.12 423.575C1193.97 422.376 1195.82 421.174 1197.68 419.958C1200.98 416.84 1204.31 413.66 1207.64 410.486C1205.81 411.632 1203.99 412.756 1202.17 413.884ZM1216.53 399.948C1212.89 403.498 1209.28 407.011 1205.68 410.498C1207.62 409.287 1209.6 408.005 1211.55 406.775C1215.08 403.401 1218.63 400.011 1222.2 396.577C1220.3 397.718 1218.42 398.825 1216.53 399.948ZM1230.91 385.876C1227.15 389.559 1223.41 393.218 1219.68 396.862C1221.62 395.705 1223.53 394.596 1225.47 393.421C1229.24 389.788 1233.03 386.137 1236.83 382.463C1234.86 383.595 1232.87 384.761 1230.91 385.876ZM1245.54 371.408C1241.64 375.282 1237.73 379.172 1233.89 382.963C1235.89 381.818 1237.9 380.652 1239.91 379.488C1243.7 375.806 1247.54 372.029 1251.39 368.264C1249.43 369.336 1247.49 370.353 1245.54 371.408ZM1260.35 356.699C1256.25 360.796 1252.2 364.802 1248.13 368.842C1250.14 367.744 1252.16 366.638 1254.19 365.521C1258.24 361.546 1262.28 357.603 1266.37 353.571C1264.36 354.615 1262.35 355.673 1260.35 356.699ZM1275.24 341.72C1271.06 345.94 1266.87 350.161 1262.73 354.301C1264.76 353.254 1266.79 352.203 1268.82 351.139C1272.92 347.092 1277.06 342.972 1281.2 338.849C1279.21 339.827 1277.23 340.758 1275.24 341.72ZM1290.31 326.498C1285.99 330.879 1281.69 335.225 1277.42 339.532C1279.45 338.543 1281.49 337.549 1283.52 336.543C1287.78 332.301 1292.06 328.016 1296.37 323.696C1294.35 324.627 1292.32 325.581 1290.31 326.498ZM1305.61 310.914C1301.16 315.459 1296.73 319.966 1292.32 324.445C1294.36 323.514 1296.4 322.558 1298.44 321.611C1302.82 317.21 1307.21 312.796 1311.63 308.333C1309.62 309.197 1307.61 310.062 1305.61 310.914ZM1320.99 295.107C1316.47 299.771 1311.94 304.448 1307.47 309.012C1309.5 308.149 1311.52 307.29 1313.54 306.414C1317.97 301.933 1322.48 297.33 1326.97 292.743C1324.97 293.536 1322.98 294.325 1320.99 295.107ZM1304.9 310.111C1309.42 305.491 1314 300.773 1318.58 296.06C1133.69 368.211 951.593 393.085 769.708 417.93C659.258 433.018 548.886 448.1 438.022 473.756C534.373 455.027 629.962 445.029 726.106 434.976C913.658 415.363 1103.34 395.514 1304.9 310.111ZM1289.61 325.691C1294.06 321.177 1298.54 316.605 1303.03 312.015C1102.14 396.679 913.049 416.447 726.065 436C624.687 446.601 523.931 457.147 422.256 477.935C511.608 463.153 599.874 457.001 688.984 450.799C879.104 437.568 1073.07 424.076 1289.61 325.691ZM1159.82 452.867C1162.91 449.954 1166.02 447.018 1169.15 444.049C846.088 657.397 665.243 597.273 495.417 540.745C446.45 524.446 398.397 508.459 348.102 499.443M264.861 519.412C265.636 520.224 266.407 521.046 267.176 521.87C269.296 521.125 271.416 520.389 273.536 519.654C272.714 518.891 271.892 518.132 271.066 517.381C268.999 518.052 266.93 518.728 264.861 519.412ZM261.762 516.218C262.541 517.012 263.321 517.802 264.094 518.607C266.131 517.933 268.169 517.264 270.205 516.602C269.386 515.861 268.569 515.116 267.743 514.387C265.751 514.989 263.756 515.604 261.762 516.218ZM258.637 513.082C259.416 513.854 260.196 514.624 260.971 515.409C262.928 514.804 264.887 514.196 266.842 513.603C266.025 512.886 265.208 512.17 264.387 511.466C262.472 512 260.555 512.536 258.637 513.082ZM255.494 510.014C256.269 510.756 257.038 511.51 257.809 512.266C259.696 511.728 261.582 511.201 263.467 510.675C262.647 509.979 261.82 509.297 260.994 508.611C259.162 509.072 257.33 509.537 255.494 510.014ZM252.326 507.022C253.097 507.737 253.861 508.467 254.627 509.196C256.432 508.726 258.234 508.265 260.035 507.809C259.212 507.135 258.386 506.471 257.559 505.807C255.817 506.203 254.071 506.615 252.326 507.022ZM249.1 504.093C249.876 504.789 250.651 505.483 251.422 506.191C253.131 505.79 254.839 505.387 256.545 504.997C255.74 504.358 254.935 503.718 254.125 503.092C252.452 503.42 250.779 503.748 249.1 504.093ZM245.882 501.261C246.645 501.922 247.408 502.577 248.166 503.249C249.793 502.912 251.416 502.59 253.04 502.267C252.237 501.653 251.437 501.033 250.629 500.431C249.05 500.698 247.465 500.981 245.882 501.261ZM242.616 498.48C243.372 499.111 244.124 499.753 244.877 500.395C246.409 500.122 247.942 499.844 249.471 499.583C248.682 499.002 247.889 498.43 247.095 497.861C245.603 498.063 244.112 498.261 242.616 498.48ZM239.357 495.811C240.089 496.397 240.813 497.002 241.539 497.598C242.99 497.383 244.436 497.181 245.881 496.983C245.092 496.427 244.294 495.891 243.499 495.346C242.123 495.489 240.739 495.655 239.357 495.811ZM236.024 493.207C236.749 493.765 237.473 494.323 238.193 494.892C239.524 494.737 240.854 494.586 242.183 494.441C241.429 493.932 240.674 493.43 239.915 492.932C238.62 493.019 237.325 493.106 236.024 493.207ZM232.712 490.716C233.407 491.228 234.107 491.733 234.797 492.255C236.013 492.156 237.227 492.061 238.437 491.974C237.716 491.509 237 491.034 236.274 490.579C235.09 490.617 233.901 490.667 232.712 490.716ZM229.389 488.307C230.038 488.765 230.683 489.233 231.328 489.7C232.429 489.649 233.525 489.614 234.623 489.573C233.939 489.154 233.254 488.732 232.566 488.319C231.509 488.309 230.45 488.306 229.389 488.307ZM226.067 486.013C226.661 486.414 227.25 486.83 227.841 487.238C228.79 487.232 229.743 487.214 230.69 487.216C230.068 486.853 229.44 486.501 228.814 486.146C227.898 486.101 226.985 486.051 226.067 486.013ZM222.759 483.847C223.27 484.176 223.782 484.504 224.291 484.839C225.095 484.866 225.895 484.905 226.696 484.943C226.13 484.631 225.555 484.339 224.987 484.034C224.248 483.963 223.5 483.912 222.759 483.847ZM219.513 481.804C219.926 482.056 220.346 482.297 220.756 482.554C221.331 482.6 221.902 482.652 222.473 482.698C222.056 482.484 221.637 482.272 221.217 482.058C220.648 481.977 220.084 481.882 219.513 481.804ZM216.515 479.993C216.711 480.107 216.903 480.23 217.098 480.345C217.38 480.381 217.664 480.412 217.946 480.448C217.744 480.352 217.546 480.248 217.344 480.152L216.515 479.993ZM1342.55 276.834C1340.56 277.558 1338.58 278.291 1336.59 279.006C1331.92 283.855 1327.32 288.576 1322.7 293.342C1324.7 292.552 1326.71 291.768 1328.71 290.965C1333.32 286.266 1337.9 281.607 1342.55 276.834ZM1350.78 273.811C1348.81 274.543 1346.83 275.268 1344.86 275.992C1340.26 280.71 1335.73 285.331 1331.18 289.982C1333.2 289.17 1335.22 288.335 1337.24 287.512C1341.74 282.968 1346.24 278.424 1350.78 273.811ZM1359.07 270.703C1357.1 271.449 1355.12 272.184 1353.15 272.919C1348.67 277.474 1344.21 281.992 1339.77 286.478C1341.78 285.655 1343.79 284.833 1345.8 283.999C1350.19 279.616 1354.63 275.159 1359.07 270.703ZM1367.41 267.509C1365.43 268.273 1363.45 269.045 1361.47 269.799C1357.12 274.176 1352.74 278.59 1348.43 282.894C1350.43 282.057 1352.43 281.218 1354.44 280.368C1358.72 276.149 1363.08 271.804 1367.41 267.509ZM1375.81 264.252C1373.84 265.025 1371.87 265.788 1369.9 266.551C1365.61 270.806 1361.31 275.083 1357.07 279.261C1359.06 278.411 1361.06 277.533 1363.06 276.672C1367.29 272.567 1371.53 268.436 1375.81 264.252ZM1384.17 260.939C1382.25 261.708 1380.32 262.467 1378.39 263.228C1374.17 267.364 1370 271.415 1365.81 275.477C1367.8 274.612 1369.8 273.755 1371.79 272.879C1375.87 268.973 1380.04 264.922 1384.17 260.939ZM1392.67 257.501C1390.71 258.299 1388.76 259.105 1386.8 259.893C1382.79 263.766 1378.71 267.758 1374.74 271.563C1376.68 270.7 1378.62 269.832 1380.57 268.958C1384.57 265.191 1388.62 261.342 1392.67 257.501ZM1401.19 254.003C1399.26 254.807 1397.32 255.602 1395.38 256.396C1391.45 260.138 1387.47 263.943 1383.58 267.614C1385.52 266.737 1387.46 265.836 1389.4 264.946C1393.32 261.33 1397.24 257.691 1401.19 254.003ZM1409.77 250.41C1407.86 251.223 1405.93 252.021 1404.01 252.823C1400.19 256.4 1396.35 259.984 1392.56 263.494C1394.46 262.617 1396.36 261.755 1398.26 260.868C1402.09 257.392 1405.91 253.953 1409.77 250.41ZM1418.43 246.703C1416.52 247.529 1414.6 248.359 1412.69 249.175C1408.98 252.58 1405.29 255.942 1401.61 259.282C1403.5 258.392 1405.39 257.494 1407.29 256.592C1411.01 253.289 1414.68 250.068 1418.43 246.703ZM1427 242.98C1425.15 243.792 1423.3 244.602 1421.45 245.405C1417.85 248.64 1414.3 251.787 1410.73 254.962C1412.6 254.062 1414.48 253.137 1416.36 252.227C1419.9 249.145 1423.43 246.112 1427 242.98ZM1435.57 239.189C1433.81 239.977 1432.05 240.746 1430.29 241.524C1426.84 244.552 1423.46 247.453 1420.04 250.429C1421.85 249.545 1423.65 248.678 1425.45 247.785C1428.82 244.937 1432.18 242.085 1435.57 239.189ZM1444.25 235.258C1442.52 236.043 1440.8 236.829 1439.07 237.606C1435.85 240.371 1432.67 243.045 1429.46 245.773C1431.23 244.89 1433 244.002 1434.76 243.108C1437.91 240.522 1441.08 237.888 1444.25 235.258ZM1452.9 231.273C1451.24 232.045 1449.58 232.824 1447.92 233.589C1444.93 236.08 1441.96 238.525 1438.99 240.983C1440.71 240.107 1442.43 239.202 1444.15 238.316C1447.05 236.008 1449.98 233.621 1452.9 231.273ZM1461.49 227.256C1459.96 227.981 1458.42 228.69 1456.89 229.409C1454.2 231.584 1451.51 233.75 1448.83 235.896C1450.38 235.092 1451.93 234.293 1453.47 233.481C1456.13 231.436 1458.82 229.333 1461.49 227.256ZM1470.16 223.1C1468.75 223.78 1467.34 224.454 1465.93 225.129C1463.6 226.941 1461.27 228.775 1458.96 230.566C1460.27 229.868 1461.58 229.175 1462.9 228.472C1465.31 226.687 1467.73 224.91 1470.16 223.1ZM1478.51 219.028C1477.35 219.6 1476.19 220.179 1475.02 220.747C1473.18 222.129 1471.32 223.549 1469.48 224.916C1470.47 224.383 1471.45 223.84 1472.44 223.303C1474.46 221.876 1476.48 220.471 1478.51 219.028ZM1486.13 215.274C1485.51 215.583 1484.89 215.884 1484.27 216.19C1483.07 217.049 1481.87 217.932 1480.67 218.782C1481.13 218.527 1481.59 218.262 1482.05 218.006L1486.13 215.274ZM277.638 523.537C275.414 524.352 273.191 525.17 270.966 525.996C295.423 553.038 317.454 585.671 339.9 618.937C383.572 683.663 428.839 750.751 496.69 783.287C596.159 830.985 744.403 804.414 1007.75 587.538C753.242 789.596 607.926 809.499 507.609 760.924C443.009 729.643 397.136 669.985 352.775 612.29C328.24 580.379 304.162 549.079 277.638 523.537ZM285.58 520.636C283.38 521.432 281.181 522.242 278.981 523.047C305.42 548.593 329.442 579.818 353.918 611.652C398.213 669.261 444.019 728.833 508.413 760.014C611.636 809.996 762.849 786.994 1032.65 566.145C770.839 772.592 622.173 788.409 517.652 737.267C457.065 707.622 411.372 655.491 367.073 604.949C340.388 574.502 314.206 544.636 285.58 520.636ZM293.496 517.812C291.32 518.583 289.146 519.357 286.971 520.139C315.482 544.138 341.583 573.916 368.185 604.267C412.426 654.742 458.057 706.804 518.463 736.361C626.022 788.99 780.656 770.265 1058.26 544.308C787.512 756.437 634.958 767.224 525.509 713.066C469.617 685.409 425.018 640.835 381.655 597.495C352.714 568.569 324.321 540.207 293.496 517.812ZM301.389 515.029C299.234 515.782 297.08 516.538 294.926 517.302C325.607 539.695 353.896 567.957 382.728 596.773C426.04 640.061 470.586 684.584 526.321 712.163C638.369 767.607 795.842 754.662 1080.15 525.657L1081.39 524.547C801.559 741.57 645.265 745.603 530.369 688.056C480.118 662.887 437.816 625.949 396.553 589.916C365.24 562.573 334.524 535.761 301.389 515.029ZM309.237 512.297C307.115 513.03 304.992 513.774 302.87 514.514C335.826 535.243 366.409 561.935 397.579 589.154C438.796 625.146 481.049 662.042 531.187 687.155C647.402 745.362 806.221 740.23 1093.43 513.836C1094.66 512.736 1095.86 511.684 1097.1 510.573C810.285 728.428 651.372 722.904 530.831 661.734C487.582 639.787 449.294 610.691 411.802 582.198C377.985 556.497 344.813 531.294 309.237 512.297ZM317.068 509.635C314.979 510.341 312.891 511.046 310.802 511.763C346.152 530.761 379.149 555.835 412.785 581.396C450.242 609.863 488.493 638.932 531.656 660.835C653.143 722.487 813.784 727.395 1106.1 502.424C1107.91 500.789 1109.73 499.132 1111.54 497.496C735.174 776.646 575.565 671.739 427.46 574.325C390.994 550.339 355.219 526.823 317.068 509.635ZM324.878 507.008C322.822 507.693 320.766 508.383 318.71 509.076C356.589 526.271 392.146 549.647 428.386 573.484C577.264 671.408 737.818 776.882 1119.87 489.943C1121.83 488.151 1123.83 486.298 1125.82 484.467C762.894 746.743 597.5 653.245 443.576 566.268C404.296 544.072 365.764 522.305 324.878 507.008ZM332.633 504.439C330.628 505.099 328.623 505.765 326.618 506.431C367.174 521.744 405.44 543.356 444.44 565.394C599.045 652.756 765.308 746.602 1132.83 478.005C1135.41 475.623 1137.96 473.292 1140.56 470.886C790.775 716.844 619.769 634.707 460.214 558.009C417.927 537.681 376.442 517.751 332.633 504.439ZM340.391 501.919C338.433 502.549 336.476 503.178 334.519 503.818C377.926 517.16 419.079 536.938 461.018 557.1C621.13 634.064 792.767 716.567 1146.07 465.738C1148.97 463.037 1151.9 460.285 1154.82 457.546C818.446 687.025 642.306 616.043 477.463 549.515C431.963 531.152 387.32 513.143 340.391 501.919ZM355.798 497.015C353.984 497.586 352.172 498.156 350.359 498.73C400.073 507.824 447.629 523.652 496.077 539.778C666.43 596.482 847.906 656.777 1173.58 439.839C1176.88 436.705 1180.18 433.564 1183.5 430.404C873.706 627.917 688.643 578.376 514.193 531.657C461.478 517.54 409.732 503.69 355.798 497.015ZM363.472 494.634C361.736 495.166 360 495.696 358.265 496.238C411.519 503.025 462.679 516.715 514.782 530.669C689.76 577.53 875.445 627.214 1187.53 426.566C1191.01 423.231 1194.55 419.801 1198.07 416.387C901.441 598.495 712.622 559.327 533.945 522.196C477.148 510.392 421.371 498.809 363.472 494.634ZM371.1 492.29C369.498 492.777 367.897 493.275 366.294 493.766C423.37 498.103 478.419 509.542 534.462 521.188C713.636 558.423 903.005 597.744 1201.53 413.049C1205.26 409.448 1208.97 405.865 1212.73 402.209C929.228 569.285 737.298 540.085 554.865 512.289C493.579 502.952 433.365 493.78 371.1 492.29ZM378.737 489.999C377.261 490.442 375.787 490.881 374.312 491.326C435.592 493.04 494.933 502.07 555.308 511.27C738.24 539.14 930.739 568.417 1215.87 399.127C1219.68 395.411 1223.52 391.646 1227.37 387.872C957.088 540.215 762.792 520.596 577.195 501.847C510.956 495.156 445.823 488.586 378.737 489.999ZM386.338 487.743C385.043 488.123 383.748 488.5 382.453 488.884C448.36 487.774 512.427 494.242 577.565 500.822C763.669 519.622 958.528 539.31 1230.23 385.07C1234.22 381.149 1238.24 377.164 1242.28 373.162C985.232 511.233 789.356 500.807 601.255 490.759C529.477 486.926 458.827 483.16 386.338 487.743ZM393.906 485.526C392.868 485.826 391.831 486.135 390.793 486.437C461.83 482.271 531.148 485.967 601.551 489.727C790.164 499.803 986.599 510.26 1244.86 370.598C1248.98 366.512 1253.1 362.443 1257.25 358.305C1013.62 482.464 817.223 480.633 627.467 478.876C549.431 478.153 472.519 477.444 393.906 485.526ZM401.521 483.34L399.37 483.955C476.166 476.446 551.395 477.135 627.696 477.841C817.982 479.604 1014.96 481.41 1259.66 355.901C1263.86 351.704 1268.12 347.392 1272.38 343.103C1042.45 453.729 846.755 459.96 656.406 465.991C571.239 468.689 487.141 471.355 401.521 483.34ZM409.031 481.205L408.444 481.369C491.737 470.186 573.649 467.584 656.57 464.956C847.455 458.907 1043.72 452.656 1274.55 340.914C1278.91 336.531 1283.26 332.135 1287.66 327.681C1071.88 425.155 878.467 438.635 688.883 451.829C595.411 458.336 502.867 464.777 409.031 481.205ZM822.607 396.733C700.341 416.974 577.182 437.365 454.018 469.093C559.508 445.626 664.567 431.271 769.696 416.911C952.154 391.986 1134.83 367.019 1320.29 294.295C1324.96 289.485 1329.61 284.713 1334.33 279.812C1167.21 339.683 995.804 368.063 822.607 396.733ZM386.274 486.714L388.295 486.122L387.527 486.203C386.797 486.395 386.067 486.582 385.336 486.775L386.274 486.714ZM378.701 488.96C379.723 488.656 380.746 488.344 381.768 488.04C381.245 488.076 380.723 488.105 380.201 488.142L377.023 488.995L378.701 488.96ZM371.116 491.237C372.404 490.846 373.692 490.464 374.979 490.077C374.232 490.095 373.484 490.122 372.736 490.145C371.47 490.489 370.202 490.844 368.935 491.192C369.663 491.207 370.39 491.219 371.116 491.237ZM363.521 493.568L367.883 492.225L365.354 492.181C363.895 492.583 362.435 492.981 360.975 493.39C361.823 493.45 362.673 493.507 363.521 493.568ZM355.881 495.936C357.484 495.434 359.086 494.935 360.689 494.439C359.773 494.377 358.86 494.309 357.943 494.252C356.353 494.703 354.762 495.152 353.173 495.606C354.076 495.713 354.979 495.825 355.881 495.936ZM348.224 498.35C349.949 497.803 351.674 497.262 353.398 496.718C352.415 496.601 351.429 496.493 350.444 496.381C348.758 496.866 347.071 497.361 345.386 497.852C346.331 498.018 347.279 498.181 348.224 498.35ZM340.558 500.809C342.358 500.229 344.157 499.64 345.957 499.064C344.974 498.893 343.992 498.712 343.007 498.546C341.215 499.068 339.423 499.589 337.63 500.122C338.607 500.347 339.582 500.577 340.558 500.809ZM332.836 503.312C334.73 502.691 336.623 502.08 338.518 501.469C337.502 501.231 336.484 501.004 335.465 500.772C333.618 501.325 331.773 501.878 329.926 502.437C330.898 502.725 331.867 503.018 332.836 503.312ZM325.132 505.865C327.074 505.22 329.016 504.575 330.959 503.935C329.952 503.632 328.949 503.327 327.94 503.033C326.029 503.615 324.117 504.208 322.205 504.796C323.182 505.149 324.159 505.503 325.132 505.865ZM317.366 508.472C319.368 507.794 321.369 507.118 323.371 506.448C322.375 506.08 321.376 505.721 320.377 505.361C318.417 505.965 316.456 506.57 314.496 507.186C315.455 507.608 316.41 508.042 317.366 508.472ZM309.584 511.116C311.631 510.413 313.677 509.722 315.725 509.03C314.745 508.593 313.763 508.159 312.778 507.731C310.777 508.365 308.775 508.998 306.774 509.64C307.711 510.13 308.649 510.619 309.584 511.116ZM301.784 513.828C303.862 513.102 305.942 512.376 308.02 511.657C307.067 511.153 306.115 510.65 305.159 510.152C303.122 510.809 301.081 511.476 299.042 512.14C299.958 512.698 300.872 513.259 301.784 513.828ZM293.938 516.586C296.059 515.834 298.181 515.086 300.302 514.345C299.374 513.768 298.441 513.205 297.508 512.642C295.439 513.316 293.371 513.993 291.301 514.68C292.183 515.309 293.06 515.95 293.938 516.586ZM286.073 519.393C288.219 518.621 290.364 517.858 292.51 517.097C291.616 516.452 290.724 515.809 289.826 515.175C287.727 515.876 285.629 516.58 283.528 517.292C284.379 517.989 285.228 518.686 286.073 519.393ZM278.18 522.269C280.346 521.476 282.512 520.677 284.677 519.892C283.822 519.18 282.967 518.471 282.109 517.768C279.985 518.491 277.863 519.226 275.741 519.959C276.556 520.723 277.37 521.492 278.18 522.269ZM270.239 525.195C272.438 524.377 274.639 523.567 276.839 522.76C276.018 521.974 275.191 521.205 274.364 520.433C272.219 521.174 270.075 521.917 267.929 522.671C268.702 523.506 269.47 524.35 270.239 525.195ZM40.8116 633.252C116.549 589.101 192.656 554.143 268.924 525.689C268.148 524.836 267.368 523.989 266.585 523.148C191.312 549.692 115.683 583.527 39.5214 627.926L38.8686 627.126C115.006 582.741 190.6 548.901 265.833 522.348C265.055 521.516 264.28 520.684 263.498 519.865C189.274 544.469 114.159 577.155 37.5778 621.797L36.9244 620.997C113.47 576.374 188.542 543.685 262.717 519.065C261.934 518.254 261.149 517.449 260.361 516.651C187.212 539.278 112.633 570.784 35.6344 615.671L34.9814 614.871C111.941 570.007 186.473 538.49 259.571 515.839C258.782 515.046 257.985 514.269 257.19 513.488C185.14 534.099 111.113 564.411 33.6917 609.546L33.0381 608.745C110.406 563.643 184.376 533.315 256.363 512.672C255.581 511.91 254.796 511.156 254.008 510.406C183.075 528.958 109.609 558.029 31.7477 603.418L31.0949 602.619C108.885 557.27 182.282 528.182 253.144 509.587C252.361 508.848 251.58 508.106 250.791 507.38C180.998 523.832 108.108 551.642 29.8041 597.29L29.1509 596.49C107.363 550.895 180.169 523.059 249.875 506.551C249.094 505.838 248.313 505.126 247.527 504.427C178.901 518.74 106.612 545.256 27.8613 591.163L27.2076 590.363C105.849 544.518 178.048 517.968 246.581 503.586C245.799 502.899 245.012 502.229 244.224 501.554C176.794 513.679 105.12 538.866 25.9177 585.038L25.2647 584.238C104.331 538.145 175.898 512.909 243.222 500.689C242.447 500.032 241.665 499.39 240.884 498.746C174.674 508.641 103.634 532.471 23.9736 578.909L23.3207 578.109C102.811 531.77 173.723 507.881 239.81 497.865C239.048 497.245 238.286 496.625 237.518 496.018C172.553 503.636 102.162 526.07 22.0309 572.783L21.3774 571.983C101.287 525.4 171.522 502.874 236.34 495.1C235.599 494.523 234.863 493.938 234.117 493.371C170.421 498.661 100.699 519.664 20.0876 566.657L19.4343 565.857C99.7734 519.022 169.313 497.914 232.841 492.423C232.106 491.875 231.366 491.332 230.625 490.795C168.243 493.718 99.2203 513.266 18.1439 560.529L17.4912 559.731C98.2444 512.655 167.061 492.971 229.26 489.798C228.555 489.296 227.839 488.815 227.128 488.324C166.077 488.819 97.7679 506.851 16.2001 554.402L15.5472 553.602C96.6956 506.297 164.751 488.079 225.584 487.255C224.916 486.803 224.243 486.359 223.57 485.917C163.885 483.941 96.3136 500.44 14.2571 548.277L13.6039 547.476C95.1277 499.952 162.385 483.227 221.814 484.777C221.212 484.391 220.614 483.994 220.008 483.614C161.71 479.101 94.8874 494.014 12.3141 542.15L11.6608 541.35C93.5079 493.636 159.926 478.4 217.898 482.337C217.383 482.024 216.869 481.707 216.351 481.401C159.481 474.308 93.4468 487.591 10.3702 536.022L9.71686 535.221C91.8331 487.351 157.356 473.627 213.826 479.946C213.416 479.713 213.003 479.482 212.591 479.252C157.197 469.547 91.9816 481.186 8.42691 529.895L7.7736 529.095C90.0625 481.125 154.617 468.913 209.522 477.579C209.305 477.464 209.085 477.353 208.867 477.241C154.959 464.828 90.5746 474.747 6.48376 523.769L5.83044 522.969C87.496 475.363 150.647 464.407 203.659 474.914C151.548 460.302 88.4034 468.754 4.54023 517.642L3.8873 516.843C83.8312 470.239 145.03 460.127 195.783 471.659C145.943 456.004 84.7428 463.627 2.59657 511.514L1.94339 510.714C80.1063 465.15 139.382 455.797 187.96 468.179C140.303 451.662 81.0193 458.538 0.653416 505.388L0.000107245 504.588C88.6654 452.899 151.805 449.477 201.951 472.408C204.721 473.391 207.446 474.465 210.149 475.587C212.992 476.493 215.812 477.449 218.591 478.49C221.478 479.305 224.33 480.199 227.159 481.141C230.191 481.888 233.201 482.689 236.178 483.561C239.231 484.207 242.257 484.913 245.261 485.672C248.491 486.24 251.694 486.869 254.876 487.551C258.121 488.013 261.348 488.517 264.552 489.08C267.975 489.447 271.373 489.88 274.757 490.348C278.3 490.612 281.83 490.918 285.336 491.277C288.873 491.425 292.396 491.613 295.903 491.846C299.637 491.88 303.353 491.969 307.057 492.087C310.96 492 314.847 491.955 318.722 491.95C322.714 491.738 326.697 491.557 330.667 491.42C334.721 491.085 338.766 490.776 342.801 490.508C346.996 490.037 351.183 489.593 355.363 489.185C359.688 488.576 364.008 487.992 368.319 487.439C372.787 486.684 377.252 485.951 381.712 485.25C386.171 484.375 390.626 483.529 395.077 482.7C399.841 481.639 404.602 480.606 409.36 479.592C414.17 478.398 418.978 477.227 423.787 476.076C557.016 439.682 690.304 417.612 822.548 395.719C996.318 366.955 1168.28 338.487 1335.89 278.189C1413.96 197.155 1498.78 104.853 1591.08 6.0158e-05L1592.1 0.491647C1500.3 104.773 1415.91 196.628 1338.17 277.358C1340.16 276.637 1342.16 275.907 1344.15 275.176C1420.39 196.829 1503.09 107.587 1593.02 6.12444L1594.05 6.62008C1504.64 107.502 1422.36 196.294 1346.46 274.334C1348.46 273.599 1350.45 272.852 1352.45 272.109C1426.85 196.462 1507.43 110.297 1594.96 12.2501L1595.99 12.7507C1509 110.19 1428.87 195.893 1354.82 271.218C1356.8 270.475 1358.79 269.742 1360.77 268.988C1433.33 196.058 1511.79 112.979 1596.91 18.3747L1597.93 18.8773C1513.38 112.846 1435.39 195.453 1363.21 268.048C1365.21 267.286 1367.2 266.514 1369.2 265.742C1439.89 195.563 1516.2 115.593 1598.86 24.4991L1599.87 25.0073C1517.8 115.452 1441.97 194.948 1371.68 264.783C1373.68 264.004 1375.68 263.213 1377.68 262.424C1446.48 195.024 1520.64 118.157 1600.8 30.6219L1601.81 31.1354C1522.28 117.983 1448.63 194.365 1380.27 261.4C1382.2 260.632 1384.14 259.874 1386.07 259.098C1453.03 194.444 1525.01 120.784 1602.75 36.7471L1603.75 37.267C1526.67 120.599 1455.24 193.729 1388.74 258.011C1390.71 257.213 1392.69 256.409 1394.66 255.602C1459.71 193.762 1529.5 123.284 1604.69 42.8702L1605.69 43.395C1531.17 123.096 1461.95 193.034 1397.37 254.496C1399.35 253.683 1401.32 252.854 1403.29 252.03C1466.42 193.023 1534 125.747 1606.64 48.9928L1607.63 49.5246C1535.7 125.533 1468.74 192.237 1406.11 250.85C1408.06 250.03 1410.01 249.216 1411.96 248.387C1473.17 192.23 1538.53 128.177 1608.59 55.1182L1609.58 55.6554C1540.27 127.932 1475.57 191.377 1414.91 247.118C1416.85 246.288 1418.79 245.455 1420.73 244.614C1480 191.339 1543.1 130.548 1610.53 61.2409L1611.51 61.7857C1544.86 130.293 1482.44 190.457 1423.76 243.305C1425.7 242.457 1427.64 241.589 1429.58 240.733C1486.88 190.364 1547.71 132.87 1612.48 67.365L1613.45 67.9161C1549.52 132.58 1489.43 189.409 1432.76 239.326C1434.63 238.495 1436.49 237.66 1438.36 236.82C1493.73 189.347 1552.28 135.208 1614.43 73.4852L1615.39 74.0467C1554.21 134.813 1496.49 188.27 1441.87 235.227C1443.65 234.418 1445.43 233.618 1447.21 232.799C1500.64 188.249 1556.9 137.492 1616.38 79.6076L1617.33 80.1811C1558.91 137.04 1503.57 187.059 1450.98 231.053C1452.72 230.247 1454.45 229.433 1456.19 228.619C1507.64 187.03 1561.57 139.701 1618.33 85.7297L1619.27 86.3105C1563.64 139.209 1510.72 185.754 1460.18 226.756C1461.87 225.962 1463.54 225.147 1465.22 224.344C1514.69 185.739 1566.27 141.859 1620.28 91.8478L1621.2 92.446C1568.48 141.272 1518.06 184.269 1469.66 222.218C1471.21 221.467 1472.77 220.717 1474.33 219.958C1521.79 184.367 1571.01 143.963 1622.23 97.9689L1623.14 98.5808C1573.4 143.244 1525.55 182.635 1479.36 217.482C1480.77 216.788 1482.17 216.101 1483.58 215.401C1529.01 182.864 1575.81 145.982 1624.18 104.086L1625.07 104.716C1578.46 145.094 1533.3 180.795 1489.42 212.47C1490.62 211.866 1491.82 211.259 1493.02 210.65C1536.36 181.21 1580.69 147.915 1626.14 110.203L1627 110.853C1583.74 146.756 1541.49 178.624 1500.14 207.014C1500.84 206.654 1501.53 206.286 1502.23 205.924C1543.58 179.557 1585.51 149.876 1628.1 116.318L1628.93 116.99C1589.86 147.781 1551.34 175.305 1513.31 200.013C1552.06 177.022 1590.97 151.32 1630.06 122.43L1630.86 123.136C1597.34 147.903 1563.97 170.328 1530.71 190.721C1564.72 172.005 1598.5 151.379 1632.03 128.541L1632.77 129.277C1592.92 156.43 1552.71 180.47 1512.17 201.878C1505.67 205.726 1499.17 209.51 1492.67 213.208C1485.83 217.481 1479.02 221.633 1472.22 225.735C1465.27 230.283 1458.34 234.751 1451.44 239.105C1444.2 244.032 1437 248.872 1429.84 253.571C1422.58 258.67 1415.37 263.619 1408.19 268.493C1400.96 273.7 1393.78 278.803 1386.64 283.791C1379.07 289.384 1371.55 294.867 1364.1 300.204C1356.27 306.107 1348.53 311.835 1340.83 317.457C1333.43 323.137 1326.08 328.695 1318.79 334.125C1311.42 339.873 1304.11 345.512 1296.86 351.011C1288.12 357.947 1279.5 364.642 1270.96 371.206C1263.36 377.283 1255.85 383.229 1248.4 389.029C1240.92 395.094 1233.51 401.026 1226.17 406.829C1217.5 413.935 1208.93 420.885 1200.46 427.641C1192.41 434.303 1184.44 440.81 1176.58 447.15C1168.46 453.928 1160.42 460.56 1152.49 467.006C1144.22 473.967 1136.04 480.784 1127.97 487.4C1119.93 494.21 1111.96 500.89 1104.11 507.383C1096.22 514.113 1088.41 520.705 1080.7 527.128C1072.8 533.919 1065 540.536 1057.29 547.016C762.485 802.178 601.77 834.967 495.889 784.194C427.797 751.541 382.464 684.356 338.729 619.536C316.241 586.209 294.172 553.52 269.653 526.489C193.35 554.936 117.216 589.892 41.4646 634.052L40.8116 633.252Z" fill="url(#paint0_linear_208_12)"/>
<defs>
<linearGradient id="paint0_linear_208_12" x1="1322.19" y1="1014.42" x2="406.25" y2="123.983" gradientUnits="userSpaceOnUse">
<stop stop-color="#0A767B"/>
<stop offset="1" stop-color="#00A7D6"/>
</linearGradient>
</defs>
</svg>
