<svg width="488" height="726" viewBox="0 0 488 726" fill="none" xmlns="http://www.w3.org/2000/svg">
<path d="M296.763 83.2619L295.464 84.9334C295.564 84.7462 295.655 84.5607 295.754 84.3731C296.192 83.7536 296.631 83.1331 297.079 82.5108C296.972 82.7613 296.87 83.0112 296.763 83.2619ZM289.901 93.8237C289.547 94.2552 289.185 94.6902 288.835 95.1201L288.938 94.9442L290.148 93.3179L289.901 93.8237ZM294.841 87.8101C294.053 88.7596 293.297 89.6975 292.512 90.6455C292.759 90.1551 293.025 89.6605 293.275 89.1688C293.983 88.2414 294.724 87.3025 295.451 86.3689C295.25 86.8487 295.039 87.3309 294.841 87.8101ZM282.464 104.577C282.159 104.937 281.878 105.289 281.575 105.648L281.581 105.639C281.902 105.226 282.238 104.808 282.564 104.394L282.464 104.577ZM287.569 98.6304C286.837 99.4793 286.095 100.333 285.372 101.179C285.587 100.793 285.794 100.409 286.011 100.023C286.777 99.0616 287.503 98.1149 288.281 97.1495C288.047 97.6424 287.8 98.1379 287.569 98.6304ZM293.049 92.3077C291.996 93.5023 290.984 94.6818 289.95 95.8701C290.245 95.2571 290.544 94.6441 290.845 94.0297C291.813 92.8432 292.8 91.65 293.777 90.4604C293.532 91.0768 293.291 91.6921 293.049 92.3077ZM379.17 569.516L378.898 569.101C378.867 568.784 378.832 568.469 378.799 568.153L379.011 568.538C379.066 568.864 379.116 569.19 379.17 569.516ZM274.32 115.824L273.998 116.197C274.135 116.028 274.263 115.861 274.399 115.692L274.32 115.824ZM279.827 109.511C279.123 110.299 278.441 111.078 277.755 111.86C277.939 111.553 278.117 111.248 278.303 110.941C278.987 110.11 279.689 109.274 280.374 108.443C280.186 108.8 280.012 109.154 279.827 109.511ZM285.46 103.245C284.434 104.386 283.401 105.529 282.384 106.667C282.719 106.04 283.07 105.409 283.409 104.781C284.355 103.661 285.329 102.531 286.303 101.399C286.021 102.015 285.738 102.631 285.46 103.245ZM291.317 96.8202C290.052 98.1848 288.805 99.542 287.576 100.892C287.894 100.205 288.194 99.5208 288.516 98.8321C289.726 97.4356 290.913 96.0462 292.125 94.6478C291.847 95.3733 291.589 96.096 291.317 96.8202ZM379.75 573.128C379.567 572.887 379.376 572.647 379.19 572.406L379.069 571.011C379.221 571.246 379.377 571.479 379.527 571.714C379.602 572.186 379.678 572.657 379.75 573.128ZM381.352 575.258L380.999 574.784L380.861 573.835L381.122 574.249C381.199 574.586 381.279 574.921 381.352 575.258ZM382.814 577.23L382.767 577.164L382.703 576.865L382.814 577.23ZM271.484 120.768C270.824 121.506 270.152 122.248 269.485 122.988L270.192 121.89C270.803 121.172 271.449 120.439 272.077 119.714C271.877 120.066 271.683 120.416 271.484 120.768ZM277.326 114.385C276.317 115.463 275.301 116.544 274.329 117.606C274.629 117.086 274.958 116.557 275.263 116.035C276.262 114.886 277.244 113.744 278.244 112.594C277.942 113.19 277.625 113.79 277.326 114.385ZM283.428 107.844L279.664 111.878C280.035 111.158 280.396 110.44 280.772 109.718C281.924 108.418 283.121 107.102 284.306 105.789C284.003 106.477 283.725 107.158 283.428 107.844ZM289.676 101.288C288.214 102.796 286.745 104.308 285.342 105.793C285.683 105.016 286.054 104.233 286.405 103.454C287.801 101.914 289.159 100.389 290.575 98.8414C290.277 99.6564 289.966 100.474 289.676 101.288ZM380.258 576.64C379.991 576.337 379.728 576.034 379.458 575.732C379.416 575.165 379.377 574.597 379.332 574.031C379.562 574.334 379.784 574.639 380.014 574.943C380.094 575.508 380.18 576.073 380.258 576.64ZM382.076 578.708C381.872 578.47 381.662 578.235 381.456 577.998C381.394 577.537 381.33 577.077 381.264 576.616L381.788 577.331C381.884 577.79 381.982 578.248 382.076 578.708ZM383.807 580.744L383.408 580.275C383.345 579.956 383.284 579.637 383.218 579.319C383.32 579.461 383.424 579.602 383.525 579.745C383.617 580.078 383.714 580.41 383.807 580.744ZM385.4 582.657L385.315 582.553L385.217 582.175L385.235 582.202L385.4 582.657ZM262.662 132.21C262.048 132.871 261.42 133.537 260.818 134.192C260.962 133.978 261.115 133.761 261.262 133.547C261.927 132.783 262.574 132.026 263.243 131.26L262.662 132.21ZM268.684 125.744C267.702 126.792 266.743 127.832 265.765 128.879C266.083 128.364 266.381 127.855 266.703 127.339C267.644 126.28 268.622 125.205 269.585 124.137C269.29 124.671 268.975 125.211 268.684 125.744ZM275 119.132C273.76 120.412 272.511 121.696 271.314 122.958C271.68 122.299 272.055 121.638 272.429 120.977C273.633 119.65 274.799 118.338 276.026 117.002C275.676 117.714 275.343 118.422 275 119.132ZM281.475 112.414C279.997 113.936 278.557 115.443 277.094 116.96C277.482 116.173 277.874 115.385 278.271 114.595C279.648 113.106 281.057 111.603 282.462 110.103C282.138 110.872 281.792 111.646 281.475 112.414ZM288.189 105.642C286.549 107.28 284.892 108.925 283.315 110.537C283.663 109.71 284.019 108.881 284.376 108.052C285.913 106.421 287.463 104.785 289.04 103.137C288.75 103.973 288.47 104.807 288.189 105.642ZM380.71 580.082C380.374 579.753 380.033 579.425 379.694 579.097C379.652 578.443 379.604 577.79 379.558 577.137C379.862 577.482 380.167 577.826 380.468 578.172C380.551 578.808 380.63 579.446 380.71 580.082ZM382.743 582.109C382.45 581.814 382.158 581.52 381.864 581.226C381.794 580.663 381.721 580.102 381.649 579.539C381.912 579.844 382.169 580.15 382.429 580.455C382.536 581.006 382.638 581.558 382.743 582.109ZM384.696 584.095C384.461 583.852 384.231 583.608 383.994 583.365C383.91 582.909 383.82 582.454 383.734 581.998C383.94 582.245 384.139 582.494 384.344 582.742L384.696 584.095ZM386.548 586.022C386.399 585.864 386.244 585.708 386.095 585.551C386.013 585.224 385.925 584.899 385.841 584.573L386.212 585.03C386.323 585.36 386.438 585.69 386.548 586.022ZM388.274 587.879L388.137 587.731C388.093 587.592 388.051 587.452 388.005 587.313L388.065 587.389C388.133 587.553 388.206 587.715 388.274 587.879ZM253.461 143.727C252.838 144.383 252.273 145.016 251.662 145.668C251.759 145.53 251.847 145.396 251.945 145.258C252.565 144.56 253.208 143.854 253.833 143.154C253.711 143.344 253.581 143.537 253.461 143.727ZM259.626 137.297C258.696 138.266 257.755 139.239 256.84 140.201C257.156 139.718 257.464 139.236 257.784 138.752C258.703 137.739 259.596 136.738 260.536 135.717C260.221 136.247 259.937 136.768 259.626 137.297ZM266.165 130.493C264.875 131.816 263.654 133.109 262.384 134.424C262.78 133.759 263.204 133.086 263.607 132.419C264.784 131.147 265.985 129.864 267.176 128.586C266.834 129.223 266.498 129.858 266.165 130.493ZM272.738 123.868C271.296 125.317 269.845 126.768 268.44 128.201C268.844 127.447 269.223 126.701 269.636 125.945C271.021 124.475 272.428 122.996 273.856 121.508C273.484 122.294 273.101 123.084 272.738 123.868ZM279.693 116.879C278.012 118.549 276.394 120.192 274.741 121.849C275.135 121.014 275.545 120.174 275.951 119.336C277.509 117.712 279.082 116.083 280.659 114.451C280.332 115.262 280.012 116.07 279.693 116.879ZM286.768 109.969C284.959 111.728 283.141 113.491 281.384 115.228C281.733 114.358 282.065 113.492 282.424 112.62C284.104 110.899 285.846 109.151 287.589 107.403C287.307 108.26 287.041 109.114 286.768 109.969ZM381.122 583.512C380.707 583.157 380.299 582.799 379.88 582.445C379.844 581.735 379.809 581.026 379.768 580.315C380.141 580.682 380.51 581.049 380.88 581.417C380.965 582.115 381.044 582.814 381.122 583.512ZM383.351 585.441C382.982 585.115 382.606 584.792 382.233 584.468C382.164 583.835 382.101 583.202 382.029 582.57C382.357 582.902 382.693 583.231 383.018 583.563C383.135 584.188 383.243 584.815 383.351 585.441ZM385.512 587.363C385.192 587.075 384.867 586.789 384.544 586.502C384.451 585.955 384.361 585.406 384.265 584.86C384.553 585.159 384.844 585.458 385.129 585.758C385.262 586.292 385.383 586.828 385.512 587.363ZM387.594 589.268C387.334 589.028 387.076 588.787 386.813 588.548L386.494 587.205C386.722 587.451 386.949 587.698 387.177 587.943C387.318 588.384 387.457 588.826 387.594 589.268ZM389.575 591.117C389.396 590.948 389.223 590.776 389.043 590.607C388.945 590.285 388.84 589.965 388.739 589.643C388.89 589.81 389.037 589.979 389.186 590.146C389.315 590.47 389.448 590.793 389.575 591.117ZM391.402 592.87L391.221 592.695C391.164 592.546 391.11 592.396 391.053 592.246L391.161 592.369L391.402 592.87ZM243.693 155.683C243.201 156.201 242.702 156.723 242.207 157.242C242.351 157.045 242.49 156.85 242.635 156.653C243.114 156.125 243.612 155.59 244.103 155.057C243.961 155.268 243.833 155.473 243.693 155.683ZM250.222 148.901C249.302 149.835 248.395 150.764 247.503 151.686C247.772 151.295 248.046 150.901 248.315 150.509C249.223 149.528 250.142 148.541 251.048 147.562C250.767 148.01 250.499 148.454 250.222 148.901ZM256.77 142.263C255.544 143.506 254.308 144.753 253.092 145.991C253.521 145.312 253.961 144.628 254.398 143.946C255.535 142.74 256.726 141.509 257.908 140.283C257.53 140.943 257.141 141.606 256.77 142.263ZM263.628 135.375C262.172 136.817 260.749 138.244 259.327 139.67C259.742 138.951 260.146 138.234 260.568 137.512L264.754 133.152C264.37 133.896 264.004 134.634 263.628 135.375ZM270.675 128.457C269.015 130.08 267.357 131.704 265.727 133.315C266.174 132.449 266.654 131.572 267.112 130.703C268.62 129.155 270.208 127.573 271.779 125.999C271.407 126.819 271.037 127.639 270.675 128.457ZM277.956 121.375C276.126 123.136 274.332 124.879 272.545 126.621C272.929 125.772 273.295 124.927 273.69 124.075C275.438 122.313 277.167 120.56 278.933 118.79C278.599 119.654 278.28 120.513 277.956 121.375ZM285.423 114.262C283.448 116.136 281.478 118.008 279.545 119.862C279.897 118.941 280.281 118.011 280.646 117.086C282.458 115.285 284.368 113.442 286.255 111.608C285.978 112.493 285.688 113.38 285.423 114.262ZM376.473 583.243C351.682 565.489 321.296 549.513 290.324 533.236C176.693 473.517 55.3125 409.677 175.465 238.419M381.49 586.911C381.013 586.553 380.525 586.198 380.043 585.842C380.011 585.077 379.978 584.313 379.939 583.549C380.377 583.924 380.814 584.299 381.248 584.675C381.331 585.42 381.416 586.164 381.49 586.911ZM383.916 588.762C383.471 588.42 383.024 588.078 382.574 587.738C382.508 587.037 382.435 586.339 382.36 585.64C382.766 585.997 383.165 586.356 383.567 586.715C383.686 587.396 383.807 588.078 383.916 588.762ZM386.272 590.598C385.867 590.278 385.468 589.957 385.059 589.639C384.962 589.017 384.863 588.395 384.76 587.775C385.126 588.104 385.485 588.436 385.847 588.767C385.991 589.377 386.134 589.987 386.272 590.598ZM388.553 592.415C388.203 592.133 387.851 591.851 387.499 591.569C387.383 591.037 387.275 590.503 387.153 589.972C387.465 590.261 387.781 590.547 388.088 590.836C388.248 591.361 388.398 591.889 388.553 592.415ZM390.757 594.224C390.474 593.989 390.184 593.755 389.899 593.52L389.516 592.205C389.768 592.447 390.023 592.688 390.272 592.931L390.757 594.224ZM392.865 596.006L392.269 595.497C392.153 595.177 392.03 594.859 391.91 594.54L392.418 595.046C392.565 595.366 392.72 595.685 392.865 596.006ZM394.777 597.653L394.553 597.455L394.361 597.015L394.526 597.187C394.612 597.342 394.692 597.498 394.777 597.653ZM233.756 167.534C233.322 167.978 232.878 168.427 232.45 168.868L232.538 168.754C233.045 168.205 233.539 167.662 234.047 167.112L233.756 167.534ZM240.341 160.803C239.406 161.76 238.473 162.717 237.53 163.676C237.851 163.225 238.199 162.762 238.523 162.31C239.388 161.391 240.29 160.456 241.175 159.529C240.896 159.954 240.616 160.38 240.341 160.803ZM246.998 154.128C245.85 155.26 244.688 156.397 243.578 157.512C243.935 156.973 244.269 156.443 244.631 155.904C245.841 154.64 247.013 153.393 248.235 152.124C247.831 152.789 247.396 153.465 246.998 154.128ZM254.076 147.13L249.756 151.402C250.22 150.642 250.694 149.879 251.166 149.116C252.491 147.757 253.866 146.375 255.228 144.998C254.833 145.713 254.465 146.417 254.076 147.13ZM261.252 140.152C259.603 141.734 257.954 143.315 256.357 144.873C256.796 144.081 257.258 143.281 257.708 142.485C259.322 140.855 260.879 139.251 262.517 137.611C262.095 138.459 261.665 139.308 261.252 140.152ZM268.689 133.022C266.873 134.76 265.067 136.491 263.267 138.221C263.703 137.343 264.13 136.468 264.577 135.587C266.265 133.91 268.015 132.205 269.754 130.506C269.387 131.348 269.046 132.183 268.689 133.022ZM276.321 125.817C274.333 127.674 272.357 129.525 270.426 131.357C270.812 130.465 271.226 129.565 271.623 128.67C273.524 126.811 275.389 124.969 277.323 123.096C276.989 124.003 276.644 124.912 276.321 125.817ZM284.21 118.469C282.088 120.438 279.984 122.398 277.891 124.355C278.225 123.433 278.564 122.509 278.911 121.584C280.886 119.679 282.935 117.742 284.973 115.81C284.71 116.698 284.462 117.583 284.21 118.469ZM381.797 590.308C381.252 589.95 380.71 589.591 380.161 589.235C380.138 588.43 380.108 587.627 380.077 586.823C380.582 587.202 381.087 587.581 381.587 587.961C381.658 588.743 381.729 589.526 381.797 590.308ZM384.406 592.046C383.894 591.701 383.383 591.355 382.866 591.011C382.804 590.269 382.736 589.528 382.668 588.786C383.139 589.147 383.616 589.506 384.082 589.868C384.191 590.594 384.302 591.32 384.406 592.046ZM386.961 593.785C386.489 593.458 386.008 593.135 385.532 592.811C385.436 592.131 385.331 591.453 385.228 590.775C385.663 591.119 386.102 591.462 386.532 591.807C386.677 592.466 386.825 593.124 386.961 593.785ZM389.45 595.536C389.02 595.23 388.586 594.927 388.152 594.622C388.029 594.013 387.897 593.405 387.765 592.798C388.162 593.119 388.553 593.443 388.946 593.766C389.117 594.355 389.287 594.945 389.45 595.536ZM391.856 597.273C391.475 596.994 391.099 596.715 390.714 596.437C390.573 595.916 390.438 595.391 390.292 594.87C390.641 595.163 390.981 595.458 391.327 595.752C391.509 596.258 391.678 596.766 391.856 597.273ZM394.177 598.988C393.864 598.753 393.554 598.518 393.24 598.285C393.094 597.857 392.942 597.431 392.795 597.004C393.07 597.242 393.348 597.479 393.622 597.717C393.807 598.141 393.995 598.563 394.177 598.988ZM396.384 600.666C396.167 600.499 395.947 600.334 395.729 600.167C395.598 599.857 395.467 599.547 395.332 599.237C395.521 599.406 395.712 599.572 395.897 599.74C396.061 600.048 396.223 600.357 396.384 600.666ZM398.411 602.258L398.144 602.048L397.917 601.595L398.117 601.783L398.411 602.258ZM223.567 179.391L223.479 179.48L223.58 179.373L223.567 179.391ZM230.018 172.95C229.187 173.781 228.341 174.618 227.518 175.445C227.774 175.098 228.011 174.758 228.268 174.41C229.189 173.445 230.058 172.505 230.996 171.532C230.676 172.003 230.335 172.481 230.018 172.95ZM237.042 165.938C235.849 167.117 234.715 168.27 233.528 169.447C233.918 168.88 234.304 168.316 234.7 167.747C235.793 166.622 236.915 165.484 238.021 164.354C237.681 164.887 237.377 165.407 237.042 165.938ZM244.133 159.06C242.698 160.442 241.254 161.828 239.857 163.192C240.318 162.476 240.808 161.748 241.275 161.029C242.656 159.632 244.014 158.244 245.425 156.833C244.987 157.578 244.563 158.318 244.133 159.06ZM251.453 151.981C249.813 153.559 248.21 155.121 246.573 156.697C247.038 155.911 247.467 155.136 247.942 154.345C249.52 152.774 251.133 151.186 252.74 149.601C252.315 150.393 251.867 151.192 251.453 151.981ZM259.025 144.834C257.219 146.522 255.398 148.218 253.651 149.878C254.102 149.036 254.56 148.192 255.02 147.346C256.741 145.659 258.454 143.975 260.214 142.27C259.803 143.129 259.426 143.978 259.025 144.834ZM266.802 137.538C264.816 139.394 262.861 141.237 260.884 143.09C261.316 142.184 261.758 141.275 262.202 140.365C264.077 138.554 265.991 136.727 267.905 134.898C267.539 135.778 267.157 136.661 266.802 137.538ZM274.823 130.166C272.701 132.096 270.563 134.032 268.514 135.93C268.887 135.032 269.259 134.133 269.642 133.232C271.658 131.314 273.679 129.394 275.741 127.454C275.424 128.36 275.128 129.261 274.823 130.166ZM283.055 122.654C280.79 124.713 278.563 126.754 276.31 128.808C276.631 127.881 276.943 126.956 277.274 126.026C279.413 124.021 281.593 121.996 283.78 119.969C283.531 120.865 283.294 121.759 283.055 122.654ZM382.065 593.7C381.459 593.349 380.846 593.002 380.234 592.653C380.219 591.818 380.211 590.982 380.191 590.147C380.756 590.517 381.322 590.886 381.881 591.256C381.948 592.07 382.006 592.885 382.065 593.7ZM384.856 595.329C384.281 594.988 383.695 594.651 383.115 594.313C383.059 593.531 383.011 592.75 382.951 591.97C383.491 592.332 384.023 592.697 384.559 593.062C384.664 593.816 384.759 594.573 384.856 595.329ZM387.592 596.978C387.047 596.646 386.502 596.314 385.951 595.984C385.859 595.261 385.768 594.539 385.671 593.817C386.181 594.168 386.681 594.523 387.186 594.876C387.325 595.575 387.46 596.276 387.592 596.978ZM390.275 598.632C389.765 598.313 389.259 597.991 388.744 597.673C388.62 597.016 388.49 596.36 388.362 595.704C388.829 596.036 389.298 596.366 389.759 596.699C389.934 597.343 390.11 597.986 390.275 598.632ZM392.878 600.275C392.421 599.981 391.956 599.688 391.493 599.396C391.344 598.805 391.188 598.216 391.031 597.627C391.454 597.937 391.883 598.244 392.303 598.556C392.498 599.128 392.69 599.701 392.878 600.275ZM395.4 601.919C394.997 601.652 394.586 601.389 394.181 601.124C394.018 600.618 393.861 600.109 393.694 599.603C394.064 599.882 394.431 600.162 394.798 600.442C395.002 600.933 395.2 601.427 395.4 601.919ZM397.849 603.567C397.511 603.336 397.175 603.106 396.833 602.877C396.664 602.454 396.488 602.033 396.317 601.611C396.622 601.85 396.922 602.092 397.225 602.332C397.433 602.743 397.646 603.153 397.849 603.567ZM400.144 605.147C399.9 604.977 399.662 604.803 399.417 604.633C399.274 604.333 399.138 604.031 398.991 603.731C399.208 603.906 399.415 604.083 399.63 604.258C399.805 604.553 399.971 604.851 400.144 605.147ZM402.271 606.655L401.971 606.443C401.882 606.286 401.79 606.13 401.7 605.974C401.775 606.037 401.852 606.099 401.928 606.163L402.271 606.655ZM212.694 191.855L211.525 193.036L211.596 192.945C212.001 192.521 212.433 192.083 212.845 191.655L212.694 191.855ZM219.541 185.012C218.795 185.739 218.035 186.473 217.314 187.189L217.825 186.513C218.611 185.701 219.403 184.886 220.18 184.079C219.96 184.393 219.761 184.699 219.541 185.012ZM226.605 178.11C225.456 179.235 224.294 180.365 223.148 181.488C223.591 180.867 224.055 180.238 224.503 179.614C225.545 178.558 226.64 177.477 227.72 176.402C227.341 176.975 226.98 177.54 226.605 178.11ZM233.892 171.034C232.436 172.428 231.033 173.798 229.604 175.18C230.05 174.513 230.501 173.844 230.953 173.175C232.356 171.774 233.766 170.369 235.169 168.968C234.743 169.657 234.311 170.348 233.892 171.034ZM241.265 164.051C239.666 165.562 238.059 167.076 236.489 168.574C236.988 167.769 237.47 166.971 237.98 166.162C239.497 164.67 241.064 163.155 242.634 161.639C242.176 162.443 241.713 163.249 241.265 164.051ZM249.049 156.694C247.188 158.433 245.411 160.135 243.573 161.863C244.061 161.007 244.577 160.14 245.076 159.279C246.808 157.601 248.546 155.921 250.291 154.237C249.866 155.059 249.462 155.874 249.049 156.694ZM256.86 149.506C254.899 151.302 252.933 153.102 251.025 154.875C251.483 153.984 251.924 153.099 252.394 152.204C254.266 150.417 256.188 148.606 258.118 146.792C257.703 147.695 257.262 148.606 256.86 149.506ZM265.068 141.951C262.907 143.924 260.832 145.856 258.692 147.82C259.112 146.899 259.545 145.973 259.977 145.048C262.004 143.141 264.036 141.232 266.089 139.314C265.737 140.196 265.409 141.072 265.068 141.951ZM273.379 134.5C271.12 136.514 268.849 138.535 266.661 140.516C267.023 139.595 267.377 138.676 267.753 137.752C269.895 135.763 272.086 133.751 274.291 131.733C273.983 132.656 273.674 133.579 273.379 134.5ZM281.973 126.804C279.565 128.951 277.218 131.069 274.817 133.211C275.125 132.269 275.46 131.321 275.778 130.376C278.067 128.282 280.362 126.185 282.685 124.076C282.447 124.985 282.199 125.896 281.973 126.804ZM382.298 597.102C381.627 596.763 380.953 596.426 380.277 596.09C380.272 595.22 380.262 594.352 380.248 593.484C380.878 593.845 381.501 594.21 382.126 594.574C382.187 595.417 382.247 596.259 382.298 597.102ZM385.265 598.629C384.62 598.294 383.98 597.957 383.329 597.624C383.284 596.811 383.231 595.999 383.176 595.187C383.777 595.541 384.38 595.895 384.974 596.25C385.075 597.042 385.173 597.835 385.265 598.629ZM388.175 600.162C387.563 599.835 386.951 599.509 386.333 599.184C386.249 598.426 386.163 597.669 386.07 596.912C386.641 597.258 387.217 597.6 387.781 597.948C387.918 598.684 388.046 599.422 388.175 600.162ZM391.031 601.701C390.457 601.386 389.872 601.075 389.293 600.763C389.174 600.064 389.059 599.363 388.934 598.666C389.472 599 390.007 599.335 390.54 599.672C390.707 600.347 390.869 601.024 391.031 601.701ZM393.84 603.271C393.301 602.966 392.755 602.663 392.211 602.36C392.061 601.717 391.901 601.075 391.745 600.432C392.25 600.756 392.743 601.083 393.242 601.409C393.444 602.029 393.648 602.648 393.84 603.271ZM396.548 604.827C396.058 604.541 395.572 604.254 395.075 603.97C394.903 603.398 394.725 602.826 394.543 602.256C395.002 602.56 395.457 602.865 395.911 603.17C396.129 603.721 396.337 604.275 396.548 604.827ZM399.186 606.382C398.751 606.122 398.319 605.861 397.881 605.602C397.696 605.11 397.511 604.619 397.323 604.129C397.715 604.396 398.112 604.66 398.499 604.929C398.728 605.413 398.961 605.897 399.186 606.382ZM401.725 607.922C401.374 607.705 401.013 607.492 400.661 607.276C400.475 606.867 400.281 606.461 400.089 606.054C400.415 606.285 400.745 606.516 401.069 606.748C401.29 607.138 401.508 607.53 401.725 607.922ZM404.135 609.443L403.355 608.949C403.196 608.655 403.037 608.359 402.876 608.065L403.564 608.574L404.135 609.443ZM406.381 610.896L406.022 610.657L405.74 610.214L406.032 610.441L406.381 610.896ZM208.814 197.175C208.056 197.911 207.305 198.643 206.566 199.37L207.155 198.616C207.895 197.862 208.665 197.093 209.417 196.334C209.212 196.616 209.018 196.894 208.814 197.175ZM215.93 190.282C214.762 191.416 213.58 192.557 212.411 193.691C212.798 193.165 213.222 192.623 213.614 192.095C214.787 190.918 215.918 189.76 217.096 188.579C216.706 189.147 216.316 189.716 215.93 190.282ZM223.207 183.315C221.852 184.594 220.495 185.874 219.179 187.134C219.623 186.494 220.04 185.865 220.49 185.223C221.815 183.913 223.191 182.581 224.553 181.255C224.111 181.938 223.64 182.634 223.207 183.315ZM230.864 176.08C229.25 177.602 227.646 179.12 226.04 180.638C226.537 179.87 227.042 179.1 227.548 178.328C229.108 176.811 230.628 175.311 232.193 173.791C231.732 174.561 231.316 175.314 230.864 176.08ZM238.651 168.848C236.83 170.522 234.996 172.202 233.231 173.85C233.745 172.993 234.305 172.117 234.831 171.255C236.517 169.638 238.272 167.99 240.013 166.348C239.553 167.183 239.1 168.017 238.651 168.848ZM246.652 161.463C244.666 163.281 242.753 165.065 240.795 166.87C241.272 166 241.725 165.138 242.214 164.264C244.144 162.44 246.043 160.63 247.982 158.802C247.541 159.688 247.082 160.581 246.652 161.463ZM254.913 154.006C252.782 155.923 250.646 157.842 248.567 159.733C249.03 158.796 249.52 157.85 249.995 156.908C251.966 155.071 254.026 153.192 256.067 151.323C255.673 152.221 255.297 153.112 254.913 154.006ZM263.36 146.423C261.084 148.45 258.856 150.455 256.624 152.462C257.023 151.547 257.4 150.639 257.811 149.719C260.016 147.692 262.194 145.677 264.414 143.644C264.063 144.57 263.699 145.5 263.36 146.423ZM272.068 138.729C269.661 140.848 267.263 142.962 264.905 145.057C265.266 144.096 265.651 143.127 266.025 142.162C268.265 140.128 270.601 138.049 272.921 135.978C272.632 136.896 272.344 137.814 272.068 138.729ZM280.99 130.927C278.461 133.123 275.948 135.313 273.48 137.481C273.765 136.557 274.044 135.634 274.34 134.707C276.778 132.526 279.183 130.361 281.638 128.172C281.412 129.092 281.204 130.009 280.99 130.927ZM382.468 600.508C381.737 600.184 381.008 599.859 380.271 599.537C380.278 598.648 380.277 597.76 380.276 596.872C380.965 597.216 381.656 597.56 382.337 597.907C382.383 598.773 382.428 599.64 382.468 600.508ZM385.618 601.922C384.915 601.601 384.206 601.283 383.496 600.966C383.46 600.124 383.415 599.283 383.37 598.443C384.034 598.785 384.696 599.128 385.354 599.473C385.446 600.288 385.537 601.104 385.618 601.922ZM388.711 603.347C388.04 603.032 387.358 602.723 386.679 602.411C386.603 601.617 386.513 600.825 386.424 600.032C387.065 600.371 387.695 600.714 388.329 601.056C388.459 601.818 388.59 602.581 388.711 603.347ZM391.738 604.792C391.096 604.482 390.451 604.172 389.801 603.865C389.687 603.128 389.569 602.392 389.446 601.657C390.057 601.989 390.66 602.325 391.263 602.66C391.428 603.369 391.582 604.08 391.738 604.792ZM394.717 606.25C394.103 605.945 393.496 605.638 392.876 605.336C392.729 604.662 392.588 603.988 392.437 603.316C393.005 603.635 393.575 603.952 394.136 604.273C394.333 604.932 394.527 605.59 394.717 606.25ZM397.625 607.713C397.06 607.423 396.489 607.136 395.92 606.849C395.743 606.228 395.558 605.611 395.374 604.993C395.904 605.3 396.437 605.605 396.96 605.914C397.185 606.512 397.41 607.111 397.625 607.713ZM400.442 609.173C399.93 608.903 399.407 608.637 398.89 608.369C398.695 607.817 398.503 607.265 398.301 606.715C398.786 607.006 399.267 607.297 399.746 607.59C399.982 608.116 400.21 608.645 400.442 609.173ZM403.211 610.665C402.749 610.413 402.286 610.162 401.82 609.912C401.612 609.429 401.396 608.948 401.184 608.466C401.614 608.733 402.032 609.005 402.457 609.273C402.71 609.736 402.966 610.199 403.211 610.665ZM405.831 612.117C405.447 611.901 405.072 611.683 404.685 611.468C404.486 611.081 404.294 610.692 404.091 610.307C404.441 610.533 404.786 610.76 405.133 610.986C405.371 611.362 405.598 611.741 405.831 612.117ZM408.349 613.55C408.072 613.388 407.787 613.229 407.508 613.068C407.334 612.781 407.153 612.496 406.979 612.209C407.224 612.374 407.476 612.535 407.72 612.701C407.928 612.984 408.144 613.265 408.349 613.55ZM410.646 614.914L410.258 614.684L409.959 614.254L410.285 614.48C410.406 614.624 410.525 614.77 410.646 614.914ZM197.728 209.543C196.982 210.259 196.221 210.983 195.494 211.69C195.731 211.394 195.984 211.09 196.221 210.793C196.942 210.066 197.7 209.322 198.44 208.586L197.728 209.543ZM204.901 202.644L201.611 205.807C201.977 205.323 202.316 204.85 202.686 204.364C203.825 203.232 204.951 202.107 206.096 200.973C205.704 201.528 205.288 202.092 204.901 202.644ZM212.344 195.59C211.016 196.834 209.674 198.083 208.382 199.311C208.851 198.654 209.318 197.999 209.794 197.338C211.06 196.102 212.367 194.844 213.661 193.594C213.213 194.263 212.784 194.924 212.344 195.59ZM220.128 188.28C218.483 189.815 216.889 191.325 215.259 192.852C215.793 192.058 216.361 191.251 216.904 190.453C218.453 188.961 219.967 187.484 221.543 185.98C221.061 186.751 220.603 187.513 220.128 188.28ZM227.96 181.077C226.172 182.713 224.377 184.354 222.629 185.972C223.148 185.145 223.645 184.325 224.174 183.494C225.913 181.842 227.683 180.176 229.451 178.511C228.955 179.366 228.444 180.226 227.96 181.077ZM236.103 173.633C234.126 175.425 232.199 177.193 230.255 178.97C230.776 178.07 231.292 177.173 231.825 176.269C233.683 174.528 235.567 172.776 237.471 171.013C237.006 171.89 236.557 172.761 236.103 173.633ZM244.457 166.127C242.315 168.046 240.18 169.961 238.075 171.863C238.567 170.928 239.106 169.977 239.613 169.038C241.651 167.154 243.694 165.267 245.754 163.373C245.313 164.294 244.884 165.211 244.457 166.127ZM252.994 158.533C250.733 160.53 248.491 162.517 246.281 164.489C246.729 163.544 247.152 162.607 247.613 161.658C249.748 159.709 251.964 157.723 254.166 155.743C253.773 156.674 253.375 157.607 252.994 158.533ZM261.817 150.766C259.401 152.885 257.018 154.987 254.632 157.092C255.031 156.132 255.463 155.164 255.877 154.2C258.19 152.116 260.466 150.05 262.818 147.948C262.477 148.889 262.145 149.828 261.817 150.766ZM270.829 142.953C268.306 145.125 265.776 147.301 263.323 149.44C263.659 148.499 263.979 147.562 264.326 146.617C266.717 144.489 269.168 142.332 271.62 140.174C271.344 141.103 271.094 142.026 270.829 142.953ZM280.07 134.985C277.404 137.269 274.815 139.517 272.181 141.786C272.456 140.835 272.744 139.881 273.031 138.927C275.561 136.703 278.106 134.473 280.686 132.225C280.475 133.146 280.27 134.066 280.07 134.985ZM382.593 603.921C381.807 603.616 381.013 603.315 380.219 603.014C380.236 602.102 380.26 601.19 380.271 600.28C381.02 600.609 381.763 600.941 382.506 601.273C382.541 602.154 382.566 603.038 382.593 603.921ZM385.913 605.225C385.151 604.922 384.382 604.621 383.612 604.321C383.586 603.457 383.567 602.592 383.533 601.729C384.261 602.057 384.978 602.389 385.698 602.719C385.776 603.553 385.843 604.389 385.913 605.225ZM389.185 606.552C388.445 606.248 387.706 605.943 386.959 605.642C386.892 604.829 386.821 604.016 386.748 603.202C387.446 603.526 388.143 603.85 388.834 604.176C388.954 604.967 389.074 605.758 389.185 606.552ZM392.394 607.887C391.687 607.588 390.98 607.288 390.263 606.992C390.159 606.225 390.041 605.461 389.924 604.698C390.593 605.016 391.265 605.333 391.926 605.654C392.086 606.397 392.245 607.141 392.394 607.887ZM395.536 609.23C394.865 608.937 394.182 608.648 393.503 608.358C393.362 607.644 393.218 606.931 393.067 606.219C393.711 606.535 394.351 606.854 394.987 607.174C395.178 607.857 395.355 608.544 395.536 609.23ZM398.629 610.599C397.992 610.312 397.343 610.028 396.698 609.744C396.526 609.084 396.352 608.424 396.172 607.766C396.778 608.073 397.368 608.386 397.967 608.696C398.19 609.33 398.417 609.962 398.629 610.599ZM401.633 611.976C401.039 611.7 400.447 611.424 399.849 611.151C399.65 610.549 399.44 609.95 399.231 609.351C399.796 609.648 400.354 609.948 400.913 610.247C401.16 610.821 401.395 611.399 401.633 611.976ZM404.576 613.365C404.026 613.1 403.481 612.835 402.924 612.573C402.71 612.043 402.499 611.513 402.279 610.986C402.782 611.259 403.289 611.531 403.787 611.806C404.05 612.326 404.319 612.843 404.576 613.365ZM407.408 614.74C406.937 614.505 406.454 614.275 405.977 614.042C405.752 613.577 405.517 613.115 405.283 612.653C405.734 612.907 406.186 613.16 406.631 613.416C406.896 613.856 407.151 614.298 407.408 614.74ZM410.154 616.13C409.752 615.923 409.344 615.72 408.939 615.515C408.722 615.137 408.505 614.758 408.286 614.381C408.657 614.599 409.025 614.818 409.394 615.038C409.646 615.402 409.904 615.765 410.154 616.13ZM412.747 617.489C412.453 617.332 412.159 617.175 411.863 617.019C411.678 616.742 411.494 616.465 411.307 616.189C411.584 616.359 411.855 616.532 412.131 616.703C412.342 616.963 412.54 617.228 412.747 617.489ZM415.139 618.774C414.991 618.693 414.849 618.61 414.7 618.529C414.59 618.386 414.476 618.244 414.366 618.101C414.492 618.183 414.614 618.266 414.741 618.348C414.873 618.49 415.008 618.631 415.139 618.774ZM186.3 222.095C185.597 222.769 184.878 223.451 184.184 224.12C184.389 223.867 184.575 223.624 184.78 223.371C185.507 222.645 186.27 221.903 187.013 221.17C186.778 221.477 186.532 221.789 186.3 222.095ZM193.618 215.091C192.574 216.083 191.572 217.054 190.535 218.042C190.907 217.562 191.268 217.086 191.643 216.604C192.687 215.579 193.704 214.567 194.754 213.537C194.379 214.054 193.991 214.576 193.618 215.091ZM201.254 207.93C199.909 209.185 198.554 210.446 197.231 211.691C197.721 211.024 198.231 210.349 198.729 209.679C199.988 208.459 201.285 207.222 202.564 205.992C202.116 206.643 201.696 207.281 201.254 207.93ZM209.073 200.65C207.431 202.164 205.836 203.655 204.221 205.156C204.76 204.378 205.329 203.588 205.879 202.806C207.432 201.323 208.978 199.843 210.563 198.345C210.062 199.115 209.563 199.884 209.073 200.65ZM216.956 193.439C215.209 195.035 213.458 196.632 211.731 198.218C212.268 197.394 212.778 196.58 213.327 195.751C215.056 194.123 216.803 192.485 218.549 190.85C218.027 191.709 217.466 192.584 216.956 193.439ZM225.26 185.922C223.294 187.685 221.343 189.442 219.423 191.182C219.972 190.277 220.54 189.364 221.102 188.453C222.922 186.762 224.795 185.047 226.666 183.332C226.178 184.202 225.735 185.056 225.26 185.922ZM233.701 178.361C231.564 180.268 229.454 182.163 227.338 184.061C227.856 183.132 228.391 182.195 228.925 181.261C230.991 179.366 233.018 177.489 235.114 175.581C234.638 176.509 234.163 177.437 233.701 178.361ZM242.334 170.751C240.088 172.716 237.83 174.688 235.644 176.625C236.119 175.689 236.584 174.757 237.072 173.815C239.211 171.879 241.406 169.917 243.596 167.956C243.169 168.89 242.749 169.821 242.334 170.751ZM251.246 162.941C248.807 165.062 246.438 167.15 244.039 169.254C244.478 168.282 244.964 167.295 245.419 166.318C247.718 164.263 250.016 162.209 252.36 160.132C251.983 161.07 251.611 162.007 251.246 162.941ZM260.338 155.105C257.815 157.272 255.301 159.434 252.831 161.576C253.208 160.624 253.571 159.677 253.963 158.721C256.38 156.585 258.818 154.44 261.279 152.283C260.954 153.227 260.649 154.165 260.338 155.105ZM269.65 147.142C266.993 149.399 264.371 151.641 261.768 153.872C262.095 152.904 262.444 151.93 262.784 150.959C265.299 148.761 267.867 146.539 270.447 144.311C270.184 145.254 269.902 146.202 269.65 147.142ZM279.221 139.041C276.449 141.376 273.721 143.691 270.994 146.004C271.254 145.053 271.527 144.099 271.799 143.145C274.469 140.839 277.102 138.552 279.81 136.229C279.61 137.167 279.409 138.105 279.221 139.041ZM382.68 607.355C381.834 607.07 380.986 606.787 380.133 606.506C380.162 605.574 380.184 604.644 380.205 603.715C381.011 604.024 381.816 604.334 382.615 604.646C382.642 605.548 382.665 606.451 382.68 607.355ZM386.166 608.549C385.341 608.264 384.522 607.974 383.69 607.692C383.676 606.809 383.657 605.927 383.633 605.046C384.416 605.354 385.203 605.66 385.977 605.971C386.045 606.829 386.108 607.689 386.166 608.549ZM389.6 609.758C388.803 609.473 388.004 609.188 387.198 608.907C387.142 608.07 387.087 607.233 387.023 606.398C387.784 606.706 388.545 607.014 389.297 607.325C389.405 608.134 389.5 608.947 389.6 609.758ZM392.987 610.982C392.219 610.699 391.437 610.42 390.66 610.14C390.565 609.348 390.468 608.557 390.366 607.767C391.099 608.073 391.823 608.383 392.549 608.693C392.699 609.455 392.848 610.217 392.987 610.982ZM396.304 612.229C395.568 611.949 394.826 611.671 394.083 611.394C393.95 610.648 393.802 609.905 393.657 609.163C394.364 609.468 395.064 609.777 395.763 610.085C395.949 610.798 396.127 611.513 396.304 612.229ZM399.559 613.492C398.849 613.213 398.146 612.933 397.428 612.656C397.263 611.969 397.1 611.282 396.925 610.598C397.594 610.896 398.263 611.194 398.924 611.494C399.14 612.159 399.351 612.825 399.559 613.492ZM402.751 614.77C402.082 614.498 401.415 614.225 400.739 613.956C400.543 613.32 400.339 612.687 400.134 612.053C400.763 612.342 401.396 612.63 402.018 612.922C402.267 613.537 402.514 614.152 402.751 614.77ZM405.857 616.048C405.24 615.789 404.61 615.534 403.986 615.276C403.766 614.698 403.547 614.12 403.319 613.543C403.91 613.826 404.496 614.109 405.081 614.394C405.344 614.944 405.6 615.496 405.857 616.048ZM408.902 617.359C408.334 617.112 407.76 616.867 407.186 616.621C406.949 616.1 406.7 615.582 406.456 615.063C406.998 615.332 407.527 615.606 408.063 615.876C408.346 616.37 408.627 616.863 408.902 617.359ZM411.835 618.667C411.326 618.437 410.824 618.206 410.31 617.978C410.071 617.536 409.839 617.091 409.594 616.651C410.065 616.894 410.531 617.14 410.999 617.385C411.28 617.811 411.558 618.238 411.835 618.667ZM414.665 619.968C414.243 619.77 413.824 619.571 413.399 619.375C413.168 619.009 412.924 618.647 412.687 618.283C413.076 618.491 413.473 618.696 413.857 618.906C414.129 619.259 414.399 619.613 414.665 619.968ZM417.332 621.238C417.025 621.088 416.709 620.942 416.4 620.793C416.206 620.531 416.017 620.267 415.821 620.006C416.102 620.163 416.387 620.319 416.665 620.478C416.889 620.731 417.112 620.983 417.332 621.238ZM419.833 622.483L419.372 622.253C419.263 622.122 419.158 621.99 419.047 621.86L419.462 622.105C419.589 622.23 419.706 622.358 419.833 622.483ZM174.572 234.791C173.993 235.346 173.401 235.906 172.822 236.46C173.015 236.225 173.201 235.995 173.397 235.76C173.997 235.167 174.62 234.562 175.227 233.967C175.014 234.238 174.783 234.519 174.572 234.791ZM182.231 227.52C181.203 228.483 180.199 229.432 179.191 230.385C179.559 229.923 179.931 229.456 180.302 228.992C181.315 228.004 182.279 227.041 183.307 226.046C182.937 226.543 182.596 227.026 182.231 227.52ZM189.897 220.373C188.524 221.655 187.139 222.942 185.768 224.222C186.268 223.558 186.815 222.873 187.323 222.206C188.623 220.957 189.948 219.697 191.255 218.445C190.797 219.09 190.349 219.731 189.897 220.373ZM197.705 213.174C196.157 214.586 194.603 216 193.095 217.392C193.615 216.665 194.094 215.956 194.622 215.225C196.149 213.78 197.71 212.318 199.277 210.853C198.758 211.624 198.215 212.407 197.705 213.174ZM205.815 205.775C204.044 207.384 202.307 208.976 200.551 210.578C201.11 209.749 201.668 208.919 202.239 208.085C203.946 206.489 205.634 204.904 207.358 203.301C206.835 204.129 206.327 204.952 205.815 205.775ZM214.142 198.308C212.177 200.06 210.204 201.815 208.285 203.544C208.855 202.641 209.471 201.719 210.053 200.811C211.885 199.122 213.77 197.408 215.647 195.698C215.132 196.573 214.643 197.438 214.142 198.308ZM222.646 190.732C220.521 192.611 218.449 194.464 216.36 196.326C216.892 195.418 217.385 194.524 217.93 193.61C219.994 191.732 222.049 189.857 224.153 187.959C223.654 188.883 223.133 189.814 222.646 190.732ZM231.403 183.054C229.148 185.026 226.898 186.994 224.682 188.947C225.19 188.001 225.706 187.052 226.229 186.1C228.374 184.171 230.543 182.231 232.723 180.286C232.266 181.215 231.846 182.131 231.403 183.054ZM240.369 175.266C237.956 177.347 235.562 179.42 233.204 181.475C233.677 180.503 234.18 179.52 234.67 178.543C236.946 176.521 239.27 174.476 241.605 172.426C241.187 173.374 240.772 174.322 240.369 175.266ZM249.561 167.352C247.032 169.52 244.541 171.67 242.044 173.823C242.462 172.861 242.869 171.903 243.301 170.936C245.742 168.794 248.149 166.666 250.624 164.507C250.258 165.459 249.913 166.404 249.561 167.352ZM258.952 159.385C256.307 161.616 253.647 163.854 251.073 166.051C251.438 165.081 251.834 164.103 252.214 163.13C254.724 160.95 257.303 158.738 259.878 156.527C259.568 157.48 259.248 158.435 258.952 159.385ZM268.61 151.236C265.829 153.569 263.114 155.87 260.373 158.182C260.68 157.221 260.99 156.259 261.309 155.294C263.965 153.015 266.614 150.738 269.318 148.435C269.073 149.371 268.844 150.303 268.61 151.236ZM278.457 143.045C275.579 145.43 272.716 147.807 269.903 150.161C270.144 149.218 270.368 148.279 270.619 147.334C273.375 144.992 276.158 142.637 278.969 140.268C278.787 141.196 278.629 142.119 278.457 143.045ZM382.715 610.804C381.81 610.54 380.907 610.276 379.995 610.015C380.038 609.069 380.074 608.125 380.106 607.181C380.971 607.467 381.835 607.752 382.688 608.041C382.701 608.961 382.713 609.881 382.715 610.804ZM386.375 611.885C385.496 611.621 384.61 611.359 383.723 611.098C383.722 610.193 383.71 609.29 383.696 608.388C384.539 608.676 385.375 608.967 386.211 609.258C386.27 610.133 386.33 611.007 386.375 611.885ZM389.969 612.977C389.12 612.713 388.254 612.456 387.396 612.195C387.353 611.333 387.299 610.475 387.243 609.615C388.068 609.905 388.877 610.201 389.692 610.494C389.79 611.32 389.882 612.149 389.969 612.977ZM393.515 614.101C392.685 613.835 391.851 613.57 391.013 613.307C390.931 612.496 390.847 611.685 390.752 610.876C391.547 611.165 392.338 611.456 393.126 611.749C393.261 612.531 393.388 613.316 393.515 614.101ZM397.016 615.245C396.207 614.977 395.405 614.706 394.587 614.441C394.465 613.678 394.337 612.917 394.209 612.156C394.97 612.442 395.738 612.726 396.49 613.016C396.67 613.758 396.851 614.499 397.016 615.245ZM400.429 616.394C399.661 616.131 398.89 615.869 398.114 615.609C397.956 614.89 397.789 614.173 397.619 613.458C398.358 613.745 399.093 614.033 399.823 614.323C400.032 615.011 400.229 615.703 400.429 616.394ZM403.794 617.563C403.062 617.302 402.313 617.048 401.572 616.791C401.381 616.124 401.195 615.455 400.997 614.79C401.698 615.073 402.386 615.359 403.078 615.644C403.319 616.283 403.564 616.921 403.794 617.563ZM407.075 618.758C406.385 618.504 405.691 618.251 404.992 617.999C404.773 617.381 404.542 616.766 404.311 616.151C404.979 616.43 405.64 616.714 406.301 616.996C406.567 617.581 406.819 618.17 407.075 618.758ZM410.303 619.973C409.646 619.722 408.995 619.467 408.33 619.218C408.094 618.665 407.859 618.111 407.615 617.561C408.223 617.825 408.834 618.089 409.436 618.356C409.727 618.894 410.022 619.431 410.303 619.973ZM413.412 621.183C412.822 620.948 412.231 620.715 411.635 620.483C411.382 619.986 411.121 619.492 410.857 618.998C411.421 619.252 411.991 619.505 412.549 619.762C412.844 620.233 413.122 620.709 413.412 621.183ZM416.456 622.41C415.93 622.193 415.391 621.982 414.86 621.767C414.604 621.338 414.342 620.91 414.081 620.482C414.575 620.715 415.067 620.949 415.556 621.184C415.857 621.593 416.164 621.998 416.456 622.41ZM419.352 623.638C418.914 623.45 418.473 623.262 418.029 623.076C417.787 622.726 417.552 622.376 417.304 622.029C417.72 622.233 418.127 622.441 418.539 622.647C418.814 622.976 419.082 623.307 419.352 623.638ZM422.141 624.858C421.807 624.709 421.48 624.558 421.143 624.41C420.934 624.149 420.717 623.892 420.504 623.633C420.82 623.795 421.124 623.962 421.435 624.125C421.671 624.369 421.909 624.612 422.141 624.858ZM424.631 625.978C424.476 625.906 424.315 625.837 424.158 625.765L423.807 625.38C423.943 625.455 424.086 625.527 424.222 625.601L424.631 625.978ZM162.947 247.257L161.18 248.938L161.689 248.335C162.266 247.769 162.858 247.196 163.436 246.63C163.268 246.841 163.114 247.046 162.947 247.257ZM170.54 240.124C169.515 241.076 168.477 242.036 167.473 242.979C167.861 242.498 168.277 242.004 168.669 241.522C169.644 240.579 170.637 239.628 171.636 238.674C171.265 239.16 170.907 239.641 170.54 240.124ZM178.286 232.916C176.928 234.169 175.624 235.396 174.281 236.642C174.735 236.052 175.149 235.481 175.609 234.888C176.967 233.595 178.312 232.306 179.68 231.007C179.217 231.642 178.742 232.283 178.286 232.916ZM186.098 225.787C184.6 227.151 183.09 228.519 181.614 229.871C182.16 229.128 182.691 228.39 183.245 227.642C184.704 226.272 186.209 224.879 187.699 223.492C187.172 224.254 186.615 225.029 186.098 225.787ZM194.401 218.26C192.616 219.864 190.867 221.449 189.116 223.036C189.694 222.203 190.301 221.357 190.891 220.519C192.571 218.96 194.231 217.412 195.94 215.839C195.411 216.653 194.923 217.45 194.401 218.26ZM202.778 210.779C200.814 212.529 198.853 214.278 196.913 216.017C197.493 215.129 198.091 214.232 198.685 213.338C200.564 211.616 202.471 209.882 204.376 208.148C203.838 209.027 203.304 209.905 202.778 210.779ZM211.297 203.257C209.226 205.071 207.156 206.884 205.138 208.672C205.694 207.76 206.228 206.857 206.798 205.939C208.799 204.129 210.847 202.296 212.902 200.46C212.375 201.389 211.81 202.333 211.297 203.257ZM220.223 195.436C217.937 197.428 215.71 199.39 213.454 201.367C213.993 200.411 214.563 199.443 215.117 198.481C217.286 196.544 219.422 194.623 221.62 192.672C221.136 193.6 220.693 194.513 220.223 195.436ZM229.22 187.686C226.833 189.734 224.439 191.785 222.11 193.804C222.606 192.843 223.1 191.883 223.611 190.917C225.892 188.902 228.235 186.858 230.573 184.816C230.121 185.773 229.657 186.735 229.22 187.686ZM238.504 179.734C235.97 181.891 233.483 184.024 230.996 186.157C231.45 185.186 231.904 184.214 232.373 183.238C234.782 181.134 237.198 179.027 239.657 176.899C239.258 177.849 238.89 178.789 238.504 179.734ZM247.971 171.728C245.319 173.962 242.686 176.189 240.082 178.4C240.486 177.423 240.913 176.439 241.332 175.457C243.874 173.263 246.435 171.059 249.019 168.843C248.668 169.805 248.308 170.769 247.971 171.728ZM257.689 163.589C254.927 165.891 252.172 168.188 249.472 170.459C249.819 169.488 250.169 168.517 250.531 167.542C253.15 165.305 255.831 163.036 258.516 160.766C258.226 161.711 257.968 162.648 257.689 163.589ZM267.608 155.338C264.72 157.728 261.896 160.087 259.05 162.457C259.337 161.498 259.621 160.54 259.923 159.577C262.709 157.221 265.458 154.882 268.29 152.504C268.057 153.45 267.829 154.395 267.608 155.338ZM277.739 147.031C274.755 149.467 271.762 151.908 268.859 154.304C269.087 153.349 269.344 152.387 269.583 151.429C272.42 149.053 275.328 146.643 278.238 144.231C278.069 145.165 277.898 146.099 277.739 147.031ZM382.69 614.263C381.735 614.024 380.771 613.788 379.807 613.552C379.862 612.591 379.922 611.629 379.97 610.669C380.894 610.934 381.806 611.203 382.721 611.471C382.718 612.4 382.701 613.332 382.69 614.263ZM386.515 615.233C385.582 614.992 384.637 614.755 383.694 614.517C383.705 613.599 383.719 612.68 383.723 611.763C384.623 612.029 385.514 612.298 386.404 612.568C386.444 613.455 386.483 614.343 386.515 615.233ZM390.29 616.229C389.376 615.984 388.458 615.74 387.534 615.499C387.504 614.623 387.465 613.75 387.424 612.878C388.299 613.144 389.174 613.412 390.039 613.682C390.128 614.53 390.215 615.378 390.29 616.229ZM393.992 617.237C393.103 616.991 392.219 616.745 391.322 616.502C391.25 615.67 391.168 614.841 391.085 614.013C391.937 614.281 392.792 614.549 393.634 614.821C393.761 615.625 393.876 616.431 393.992 617.237ZM397.65 618.266C396.787 618.018 395.919 617.774 395.046 617.53C394.935 616.744 394.829 615.956 394.708 615.173C395.534 615.443 396.355 615.715 397.173 615.989C397.336 616.747 397.497 617.505 397.65 618.266ZM401.237 619.31C400.411 619.064 399.572 618.824 398.735 618.582C398.588 617.836 398.429 617.095 398.269 616.352C399.072 616.623 399.859 616.901 400.652 617.175C400.853 617.885 401.049 618.596 401.237 619.31ZM404.761 620.385C403.962 620.138 403.159 619.891 402.35 619.647C402.169 618.954 401.989 618.262 401.797 617.572C402.562 617.841 403.325 618.111 404.083 618.384C404.314 619.049 404.539 619.717 404.761 620.385ZM408.223 621.477C407.457 621.231 406.698 620.983 405.922 620.739C405.711 620.097 405.49 619.457 405.269 618.816C405.994 619.08 406.727 619.342 407.444 619.609C407.709 620.23 407.97 620.853 408.223 621.477ZM411.603 622.581C410.883 622.34 410.156 622.102 409.429 621.865C409.192 621.273 408.956 620.682 408.708 620.093C409.396 620.354 410.08 620.613 410.758 620.877C411.043 621.444 411.326 622.011 411.603 622.581ZM414.902 623.7C414.239 623.469 413.561 623.245 412.89 623.017C412.63 622.474 412.357 621.934 412.086 621.395C412.733 621.65 413.369 621.91 414.01 622.169C414.313 622.677 414.608 623.188 414.902 623.7ZM418.125 624.85C417.506 624.626 416.886 624.403 416.26 624.182C415.992 623.705 415.732 623.225 415.455 622.751C416.04 622.992 416.611 623.238 417.188 623.481C417.502 623.937 417.818 624.391 418.125 624.85ZM421.232 625.999C420.686 625.793 420.147 625.583 419.594 625.379C419.325 624.967 419.043 624.558 418.763 624.149C419.287 624.374 419.811 624.6 420.329 624.827C420.639 625.215 420.931 625.609 421.232 625.999ZM424.239 627.15C423.777 626.969 423.31 626.789 422.843 626.61C422.59 626.276 422.335 625.945 422.08 625.613C422.504 625.804 422.935 625.992 423.355 626.184C423.648 626.507 423.951 626.826 424.239 627.15ZM427.048 628.279C426.715 628.142 426.375 628.009 426.04 627.874C425.835 627.637 425.64 627.397 425.431 627.162C425.742 627.309 426.053 627.456 426.36 627.603C426.593 627.827 426.818 628.054 427.048 628.279ZM429.717 629.397L429.184 629.171C429.064 629.048 428.936 628.929 428.814 628.807L429.299 629.051C429.436 629.167 429.58 629.281 429.717 629.397ZM151.114 259.792C150.451 260.412 149.828 261.013 149.174 261.629L149.513 261.234L151.535 259.265L151.114 259.792ZM158.606 252.824C157.584 253.777 156.545 254.737 155.524 255.689C155.884 255.251 156.227 254.821 156.591 254.381C157.607 253.406 158.66 252.414 159.694 251.43C159.332 251.894 158.963 252.362 158.606 252.824ZM166.325 245.699C165.091 246.823 163.863 247.945 162.658 249.054C163.113 248.476 163.547 247.908 164.007 247.327C165.287 246.115 166.535 244.92 167.837 243.698C167.345 244.36 166.811 245.04 166.325 245.699ZM174.448 238.302C172.92 239.691 171.398 241.077 169.878 242.463C170.434 241.722 171.003 240.974 171.569 240.229C173 238.893 174.454 237.546 175.892 236.207C175.391 236.915 174.942 237.599 174.448 238.302ZM182.722 230.873C180.944 232.456 179.152 234.045 177.421 235.605C178.022 234.761 178.682 233.891 179.294 233.043C180.943 231.524 182.641 229.982 184.336 228.441C183.788 229.256 183.259 230.062 182.722 230.873ZM191.172 223.337C189.217 225.067 187.326 226.765 185.399 228.482C185.976 227.626 186.507 226.789 187.096 225.927C189.022 224.174 190.913 222.439 192.865 220.674C192.304 221.56 191.72 222.456 191.172 223.337ZM199.818 215.761C197.739 217.578 195.658 219.396 193.618 221.193C194.202 220.27 194.788 219.346 195.385 218.417C197.36 216.642 199.383 214.843 201.401 213.047C200.863 213.956 200.343 214.858 199.818 215.761ZM208.76 207.984C206.476 209.956 204.22 211.915 201.984 213.863C202.552 212.9 203.176 211.913 203.758 210.943C205.906 209.036 208.065 207.123 210.258 205.193C209.745 206.129 209.258 207.054 208.76 207.984ZM217.826 200.182C215.451 202.22 213.093 204.25 210.748 206.273C211.266 205.32 211.745 204.383 212.277 203.424C214.6 201.385 216.936 199.339 219.291 197.284C218.807 198.247 218.295 199.223 217.826 200.182ZM227.192 192.222C224.678 194.346 222.153 196.475 219.703 198.567C220.189 197.588 220.692 196.602 221.194 195.617C223.558 193.564 225.995 191.475 228.422 189.39C227.992 190.341 227.608 191.275 227.192 192.222ZM236.736 184.159C234.071 186.396 231.477 188.599 228.857 190.814C229.294 189.836 229.737 188.854 230.19 187.869C232.752 185.668 235.29 183.478 237.896 181.254C237.509 182.223 237.108 183.195 236.736 184.159ZM246.51 176.023C243.753 178.311 240.995 180.598 238.3 182.856C238.686 181.879 239.075 180.902 239.474 179.92C242.093 177.693 244.769 175.437 247.447 173.181C247.116 174.133 246.826 175.074 246.51 176.023ZM256.466 167.788C253.595 170.151 250.751 172.5 247.938 174.834C248.266 173.863 248.599 172.891 248.942 171.916C251.698 169.596 254.488 167.259 257.303 164.909C257.027 165.868 256.73 166.832 256.466 167.788ZM266.695 159.405C263.707 161.845 260.749 164.269 257.814 166.684C258.085 165.718 258.379 164.746 258.665 163.778C261.535 161.384 264.414 158.986 267.331 156.57C267.116 157.516 266.899 158.462 266.695 159.405ZM277.112 150.961C274.033 153.445 270.945 155.935 267.942 158.381C268.153 157.431 268.361 156.481 268.584 155.528C271.516 153.105 274.542 150.636 277.556 148.172C277.404 149.102 277.255 150.032 277.112 150.961ZM267.672 159.591C270.71 157.112 273.823 154.597 276.932 152.083C264.058 238.118 295.405 316.788 326.715 395.367C345.728 443.084 364.723 490.768 373.787 540.045C362.508 497.687 343.138 456.793 323.651 415.66C285.639 335.422 247.21 254.273 267.672 159.591ZM257.446 167.969C260.403 165.535 263.406 163.078 266.422 160.614C246.46 254.921 284.79 335.817 322.687 415.812C343.233 459.183 363.645 502.29 374.571 547.122C361.646 508.181 340.822 470.824 319.792 433.11C274.921 352.647 229.137 270.558 257.446 167.969ZM175.465 238.419C177.306 236.755 179.163 235.081 181.047 233.394C75.3628 395.192 187.351 462.18 292.581 525.077C322.922 543.213 352.689 561.011 376.491 580.653M382.624 617.744C381.615 617.53 380.599 617.319 379.58 617.108C379.65 616.133 379.711 615.158 379.77 614.184C380.745 614.424 381.718 614.665 382.683 614.908C382.669 615.852 382.649 616.798 382.624 617.744ZM386.605 618.608C385.613 618.39 384.624 618.17 383.623 617.956C383.649 617.024 383.671 616.092 383.686 615.162C384.64 615.404 385.598 615.645 386.542 615.891C386.571 616.795 386.587 617.702 386.605 618.608ZM390.539 619.49C389.568 619.269 388.597 619.047 387.616 618.829C387.6 617.939 387.588 617.048 387.562 616.161C388.492 616.405 389.422 616.649 390.341 616.897C390.411 617.76 390.479 618.624 390.539 619.49ZM394.414 620.388C393.472 620.165 392.521 619.945 391.567 619.726C391.509 618.874 391.441 618.023 391.373 617.174C392.285 617.422 393.185 617.675 394.088 617.927C394.202 618.746 394.313 619.566 394.414 620.388ZM398.223 621.307C397.309 621.082 396.382 620.861 395.455 620.64C395.358 619.831 395.253 619.024 395.142 618.219C396.034 618.471 396.917 618.726 397.8 618.981C397.949 619.754 398.084 620.531 398.223 621.307ZM401.991 622.258C401.093 622.029 400.197 621.799 399.289 621.572C399.155 620.812 399.022 620.052 398.878 619.294C399.73 619.544 400.584 619.793 401.426 620.046C401.619 620.782 401.812 621.518 401.991 622.258ZM405.663 623.219C404.803 622.99 403.947 622.76 403.078 622.534C402.907 621.816 402.724 621.102 402.54 620.387C403.368 620.639 404.201 620.889 405.02 621.144C405.242 621.833 405.452 622.527 405.663 623.219ZM409.302 624.206C408.471 623.976 407.632 623.749 406.792 623.521C406.589 622.851 406.391 622.18 406.178 621.512C406.97 621.763 407.755 622.016 408.537 622.27C408.796 622.915 409.058 623.558 409.302 624.206ZM412.831 625.205C412.051 624.979 411.255 624.759 410.467 624.536C410.234 623.907 409.989 623.282 409.741 622.657C410.51 622.911 411.263 623.171 412.022 623.429C412.301 624.017 412.562 624.612 412.831 625.205ZM416.321 626.243C415.57 626.016 414.819 625.79 414.059 625.566C413.804 624.995 413.546 624.424 413.283 623.855C413.995 624.1 414.703 624.347 415.407 624.596C415.715 625.143 416.024 625.691 416.321 626.243ZM419.697 627.288C418.998 627.067 418.306 626.843 417.599 626.626C417.326 626.11 417.05 625.595 416.766 625.082C417.427 625.319 418.097 625.554 418.75 625.795C419.072 626.29 419.384 626.789 419.697 627.288ZM422.998 628.347C422.365 628.139 421.724 627.933 421.083 627.727C420.799 627.265 420.501 626.806 420.208 626.346C420.815 626.574 421.424 626.802 422.025 627.033C422.355 627.469 422.678 627.908 422.998 628.347ZM426.189 629.421C425.627 629.228 425.052 629.039 424.485 628.848C424.204 628.454 423.932 628.057 423.644 627.665C424.178 627.875 424.703 628.088 425.232 628.301C425.551 628.674 425.875 629.046 426.189 629.421ZM429.253 630.506C428.786 630.338 428.318 630.169 427.845 630.003C427.576 629.673 427.297 629.347 427.019 629.02C427.487 629.214 427.939 629.413 428.402 629.608C428.693 629.905 428.967 630.208 429.253 630.506ZM432.183 631.582C431.817 631.444 431.46 631.302 431.091 631.166C430.874 630.934 430.652 630.705 430.435 630.474C430.766 630.618 431.094 630.764 431.425 630.91C431.674 631.135 431.935 631.356 432.183 631.582ZM434.815 632.586C434.647 632.519 434.472 632.456 434.303 632.391C434.183 632.279 434.068 632.165 433.949 632.053C434.101 632.124 434.26 632.192 434.413 632.263L434.815 632.586ZM288.01 139.632C287.92 140.55 287.822 141.468 287.741 142.385C284.532 144.956 281.422 147.48 278.277 150.02C278.423 149.087 278.565 148.153 278.724 147.217C281.81 144.693 284.866 142.184 288.01 139.632ZM288.403 135.826C288.302 136.74 288.207 137.653 288.115 138.566C285.006 141.087 281.973 143.572 278.916 146.067C279.079 145.125 279.264 144.178 279.437 143.234C282.409 140.773 285.379 138.313 288.403 135.826ZM288.86 131.987C288.745 132.901 288.64 133.813 288.536 134.726C285.548 137.18 282.59 139.62 279.657 142.048C279.834 141.108 280.011 140.17 280.199 139.228C283.048 136.833 285.954 134.409 288.86 131.987ZM289.381 128.111C289.252 129.031 289.114 129.952 288.994 130.871C286.139 133.25 283.255 135.642 280.457 137.994C280.649 137.054 280.843 136.115 281.047 135.173C283.772 132.844 286.596 130.468 289.381 128.111ZM289.947 124.207C289.806 125.124 289.674 126.04 289.542 126.956C286.783 129.29 284.005 131.632 281.307 133.938C281.514 133 281.746 132.058 281.964 131.118C284.597 128.827 287.252 126.527 289.947 124.207ZM290.577 120.309C290.425 121.207 290.284 122.105 290.142 123.002C287.476 125.294 284.877 127.554 282.269 129.82C282.492 128.882 282.707 127.945 282.94 127.006C285.427 124.8 288.029 122.543 290.577 120.309ZM291.284 116.338C291.115 117.253 290.938 118.169 290.779 119.083C288.301 121.253 285.728 123.467 283.303 125.611C283.538 124.693 283.778 123.774 284.023 122.855C286.402 120.701 288.846 118.519 291.284 116.338ZM292.042 112.35C291.861 113.256 291.688 114.163 291.517 115.069C289.14 117.191 286.714 119.336 284.394 121.432C284.644 120.513 284.914 119.591 285.176 118.67C287.439 116.574 289.721 114.47 292.042 112.35ZM292.871 108.324C292.677 109.225 292.497 110.126 292.314 111.026C290.062 113.081 287.804 115.139 285.604 117.17C285.866 116.268 286.113 115.369 286.384 114.465C288.539 112.422 290.664 110.391 292.871 108.324ZM293.788 104.252C293.579 105.154 293.366 106.055 293.168 106.955C291.044 108.94 288.956 110.909 286.884 112.871C287.16 111.97 287.444 111.069 287.731 110.166C289.755 108.192 291.714 106.247 293.788 104.252ZM294.747 100.216C294.532 101.088 294.318 101.96 294.112 102.832C292.117 104.748 290.192 106.632 288.244 108.527C288.535 107.632 288.849 106.733 289.149 105.836C291.015 103.963 292.84 102.106 294.747 100.216ZM295.767 96.1677C295.548 96.9995 295.348 97.8305 295.138 98.6616C293.294 100.486 291.552 102.268 289.749 104.074C290.046 103.212 290.327 102.351 290.633 101.487C292.331 99.7193 294.031 97.951 295.767 96.1677ZM296.893 92.0601C296.665 92.8769 296.437 93.6938 296.218 94.5103C294.557 96.2091 292.97 97.8772 291.34 99.5644C291.647 98.7156 291.958 97.8667 292.276 97.0168C293.79 95.374 295.343 93.7169 296.893 92.0601ZM298.075 87.9539C297.84 88.7425 297.599 89.5318 297.373 90.32C295.902 91.8842 294.468 93.4343 293.024 94.9881C293.339 94.161 293.682 93.3295 294.005 92.501C295.329 90.9971 296.718 89.4697 298.075 87.9539ZM299.305 83.867C299.077 84.5973 298.866 85.3258 298.644 86.0551C297.384 87.4554 296.132 88.8526 294.896 90.2435C295.195 89.4977 295.489 88.7525 295.796 88.0054C296.941 86.6347 298.134 85.2466 299.305 83.867ZM300.646 79.7331C300.424 80.4058 300.209 81.0788 299.992 81.7513C298.966 82.9514 297.923 84.1575 296.916 85.3509C297.184 84.7161 297.448 84.082 297.721 83.446C298.692 82.2098 299.655 80.9763 300.646 79.7331ZM302.002 75.7387C301.808 76.2957 301.608 76.8531 301.419 77.4099C300.659 78.3551 299.867 79.3107 299.12 80.2516C299.33 79.7739 299.55 79.295 299.765 78.8169C300.512 77.79 301.24 76.7696 302.002 75.7387ZM303.279 72.0934C303.17 72.3894 303.071 72.6852 302.965 72.9809C302.509 73.5901 302.033 74.206 301.583 74.8127C301.688 74.5888 301.801 74.364 301.906 74.1396L303.279 72.0934ZM374.828 612.995C374.724 614.023 374.617 615.051 374.501 616.081C341.331 609.506 303.564 604.669 265.068 599.744C190.168 590.162 112.533 580.229 61.0053 556.407C-14.5346 521.483 -34.0283 456.608 93.0748 319.077C-22.577 451.002 2.38732 513.788 79.0205 548.948C128.369 571.589 199.105 582.748 267.512 593.539C305.347 599.508 342.462 605.367 374.828 612.995ZM375.192 609.326C375.098 610.341 374.991 611.358 374.889 612.375C342.545 604.782 305.519 598.936 267.774 592.983C199.469 582.207 128.835 571.064 79.6442 548.496C0.792182 512.318 -23.0011 446.682 105.938 305.956C-11.6891 441.482 18.1832 505.119 98.5332 541.682C145.109 562.876 208.616 574.95 270.186 586.655C307.277 593.706 343.66 600.624 375.192 609.326ZM375.491 605.677C375.414 606.679 375.334 607.681 375.245 608.684C343.749 600.03 307.474 593.134 270.5 586.105C209.011 574.415 145.589 562.358 99.1522 541.227C16.4663 503.602 -12.4394 437.111 119.008 292.48C-1.33117 432.455 34.5112 497.042 119.227 535.25C162.488 554.761 218.46 567.374 272.883 579.637C309.205 587.822 344.824 595.854 375.491 605.677ZM375.757 602.043C375.691 603.034 375.621 604.025 375.545 605.018C344.923 595.254 309.431 587.252 273.247 579.099C218.888 566.849 162.981 554.251 119.842 534.795C33.1148 495.68 -2.1574 428.773 130.171 280.97L130.851 280.308C8.59333 424.687 52.0038 489.935 141.596 529.952C180.781 547.455 228.78 560.12 275.602 572.473C311.133 581.848 345.978 591.045 375.757 602.043ZM375.988 598.434C375.931 599.409 375.864 600.386 375.8 601.362C346.077 590.438 311.388 581.28 276.019 571.948C229.249 559.608 181.305 546.958 142.207 529.495C51.5877 489.018 8.46043 422.58 137.421 273.917C138.099 273.263 138.738 272.628 139.423 271.97C18.4813 419.347 71.7937 484.424 166.547 526.304C200.543 541.33 239.854 553.362 278.349 565.145C313.071 575.772 347.124 586.198 375.988 598.434ZM376.159 594.842C376.117 595.8 376.076 596.757 376.024 597.716C347.227 585.574 313.35 575.203 278.815 564.633C240.356 552.861 201.083 540.84 167.154 525.844C71.6566 483.636 18.4083 417.762 144.467 267.17C145.479 266.205 146.507 265.234 147.519 264.269C-4.76978 456.782 143.485 509.095 281.119 557.627C315.008 569.577 348.24 581.302 376.159 594.842ZM376.301 591.263C376.269 592.204 376.233 593.146 376.194 594.089C348.351 580.662 315.319 569.009 281.641 557.133C143.287 508.347 -5.79429 455.718 152.201 259.829C153.316 258.781 154.478 257.71 155.624 256.648C15.3522 441.376 154.481 497.583 283.926 549.896C316.959 563.245 349.358 576.342 376.301 591.263ZM376.405 587.714C376.381 588.631 376.353 589.549 376.325 590.467C349.467 575.684 317.296 562.678 284.498 549.423C154.48 496.879 14.7565 440.358 159.663 252.895C161.153 251.513 162.604 250.151 164.112 248.76C35.4223 425.904 165.418 485.926 286.769 541.921C318.93 556.762 350.47 571.322 376.405 587.714ZM376.461 584.171C376.452 585.064 376.445 585.957 376.427 586.852C350.585 570.63 319.29 556.187 287.392 541.469C165.62 485.279 35.0836 425.043 167.352 245.802C169.05 244.247 170.788 242.673 172.516 241.103C55.4789 410.529 176.395 474.143 289.649 533.663C320.91 550.092 351.573 566.213 376.461 584.171ZM376.477 577.147C376.482 577.973 376.486 578.798 376.488 579.625C352.788 560.233 323.322 542.62 293.303 524.677C187.747 461.584 75.4039 394.358 183.722 231.009C185.711 229.231 187.706 227.449 189.715 225.66C95.1132 379.884 198.289 450.008 295.566 516.109C324.961 536.082 353.808 555.691 376.477 577.147ZM376.427 573.657C376.444 574.446 376.464 575.234 376.472 576.024C353.901 554.863 325.384 535.477 296.33 515.735C198.758 449.435 95.2576 379.072 192.156 223.49C194.283 221.61 196.483 219.695 198.671 217.785C114.772 364.535 209.196 437.577 298.612 506.687C327.036 528.655 354.941 550.23 376.427 573.657ZM376.354 570.19C376.375 570.917 376.385 571.646 376.401 572.374C355.01 549.309 327.463 528.017 299.417 506.34C209.752 437.038 115.015 363.789 200.807 215.916C203.113 213.901 205.406 211.892 207.755 209.856C134.214 349.192 220.077 424.831 301.73 496.723C329.16 520.874 356.108 544.603 376.354 570.19ZM376.23 566.727C376.253 567.396 376.281 568.064 376.303 568.734C356.141 543.584 329.591 520.198 302.568 496.406C220.692 424.317 134.584 348.452 209.741 208.147C212.131 206.082 214.559 203.998 216.994 201.91C153.499 333.838 230.946 411.715 304.932 486.105C331.337 512.655 357.293 538.762 376.23 566.727ZM376.082 563.283C376.111 563.869 376.144 564.455 376.169 565.042C357.3 537.605 331.764 511.925 305.798 485.817C231.609 411.224 153.927 333.123 218.799 200.357C221.331 198.19 223.912 196 226.506 193.803C172.616 318.377 241.777 398.116 308.227 474.686C333.583 503.904 358.534 532.664 376.082 563.283ZM375.907 559.858C375.934 560.327 375.954 560.798 375.98 561.267C358.473 531.305 333.992 503.087 309.121 474.428C242.49 397.65 173.131 317.683 228.169 192.397C230.818 190.153 233.454 187.917 236.142 185.654C191.457 302.845 252.581 383.928 311.629 462.271C335.912 494.49 359.842 526.244 375.907 559.858ZM375.688 556.418L375.752 557.389C359.691 524.603 336.289 493.543 312.546 462.041C253.333 383.478 192.055 302.15 237.706 184.341C240.437 182.051 243.257 179.718 246.059 177.392C210.129 287.131 263.357 368.984 315.161 448.596C338.339 484.216 361.225 519.39 375.688 556.418ZM375.452 553.028L375.474 553.292C360.95 517.333 338.664 483.073 316.098 448.392C264.15 368.555 210.768 286.465 247.488 176.203C250.35 173.826 253.222 171.444 256.139 169.04C228.468 271.192 274.097 353.051 318.841 433.287C340.9 472.847 362.741 512.014 375.452 553.028ZM330.926 370.678C348.6 423.965 366.401 477.641 373.396 532.808C363.87 486.045 345.789 440.656 327.69 395.238C296.283 316.411 264.85 237.491 278.097 151.143C281.27 148.577 284.413 146.026 287.655 143.426C281.117 220.492 305.889 295.195 330.926 370.678ZM377.082 563.175L377.035 562.26L377.19 562.589C377.228 562.916 377.271 563.243 377.307 563.571L377.082 563.175ZM377.231 566.605C377.212 566.142 377.2 565.678 377.18 565.215C377.305 565.436 377.434 565.656 377.557 565.877L377.704 567.305L377.231 566.605ZM377.354 570.045C377.337 569.461 377.312 568.877 377.291 568.293C377.5 568.605 377.7 568.918 377.904 569.231C377.96 569.8 378.004 570.372 378.056 570.942C377.822 570.643 377.591 570.343 377.354 570.045ZM377.428 573.496L377.389 571.514L378.197 572.555C378.254 573.212 378.316 573.869 378.367 574.527C378.054 574.184 377.743 573.839 377.428 573.496ZM377.481 576.971C377.475 576.241 377.466 575.512 377.454 574.784C377.79 575.155 378.131 575.524 378.463 575.896C378.514 576.614 378.567 577.331 378.614 578.049C378.239 577.689 377.859 577.33 377.481 576.971ZM377.495 580.459C377.495 579.672 377.489 578.887 377.486 578.102C377.895 578.494 378.296 578.888 378.701 579.28C378.748 580.043 378.786 580.806 378.827 581.568C378.383 581.199 377.941 580.828 377.495 580.459ZM377.468 583.956C377.477 583.134 377.495 582.312 377.5 581.491C377.96 581.876 378.429 582.259 378.886 582.645C378.93 583.455 378.975 584.266 379.009 585.078C378.499 584.703 377.985 584.329 377.468 583.956ZM377.418 587.482C377.437 586.616 377.447 585.752 377.456 584.887C377.991 585.277 378.515 585.669 379.044 586.06C379.075 586.897 379.106 587.734 379.132 588.572C378.563 588.208 377.991 587.845 377.418 587.482ZM377.313 591.008C377.341 590.119 377.369 589.23 377.392 588.341C377.985 588.718 378.578 589.094 379.164 589.473C379.187 590.341 379.2 591.21 379.218 592.079C378.585 591.721 377.953 591.363 377.313 591.008ZM377.177 594.566C377.217 593.648 377.257 592.73 377.29 591.813C377.942 592.177 378.586 592.544 379.232 592.91C379.249 593.802 379.265 594.693 379.271 595.585C378.578 595.244 377.876 594.905 377.177 594.566ZM377.009 598.135C377.061 597.195 377.1 596.258 377.141 595.319C377.853 595.667 378.564 596.017 379.27 596.368C379.271 597.28 379.272 598.192 379.266 599.105C378.515 598.781 377.765 598.457 377.009 598.135ZM376.783 601.722C376.846 600.766 376.909 599.809 376.966 598.854C377.735 599.183 378.503 599.511 379.266 599.841C379.256 600.771 379.237 601.704 379.221 602.635C378.411 602.329 377.6 602.024 376.783 601.722ZM376.525 605.333C376.601 604.356 376.673 603.379 376.738 602.403C377.569 602.712 378.387 603.024 379.206 603.336C379.188 604.282 379.169 605.227 379.14 606.174C378.274 605.892 377.397 605.613 376.525 605.333ZM376.228 608.958C376.315 607.968 376.394 606.98 376.471 605.991C377.355 606.276 378.238 606.562 379.114 606.85C379.08 607.811 379.044 608.773 379 609.736C378.079 609.475 377.157 609.215 376.228 608.958ZM375.873 612.604C375.974 611.603 376.081 610.601 376.175 609.602C377.112 609.862 378.046 610.123 378.976 610.386C378.929 611.36 378.869 612.336 378.813 613.311C377.838 613.074 376.859 612.838 375.873 612.604ZM375.485 616.277C375.599 615.259 375.707 614.241 375.81 613.224C376.808 613.461 377.791 613.702 378.777 613.943C378.72 614.929 378.659 615.914 378.589 616.902C377.56 616.691 376.523 616.484 375.485 616.277ZM341.853 725.471C361.038 688.311 371.349 652.205 375.412 616.886C376.459 617.095 377.503 617.307 378.541 617.521C375.998 652.176 366.613 687.937 347.32 725.306L348.28 725.471C367.567 688.114 376.967 652.367 379.531 617.727C380.559 617.94 381.587 618.152 382.604 618.368C381.593 652.334 373.148 687.731 353.749 725.306L354.71 725.471C374.1 687.914 382.561 652.535 383.602 618.587C384.612 618.804 385.617 619.024 386.616 619.245C387.164 652.506 379.682 687.526 360.176 725.306L361.136 725.471C380.631 687.711 388.139 652.709 387.629 619.466C388.623 619.688 389.605 619.916 390.59 620.142C392.728 652.684 386.216 687.319 366.602 725.306L367.563 725.471C387.162 687.511 393.706 652.897 391.618 620.378C392.58 620.602 393.536 620.827 394.489 621.055C398.253 652.864 392.754 687.103 373.031 725.306L373.99 725.471C393.697 687.303 399.231 653.09 395.532 621.306C396.473 621.533 397.415 621.759 398.347 621.99C403.766 653.051 399.296 686.886 379.46 725.306L380.42 725.471C400.233 687.096 404.754 653.293 399.414 622.26C400.329 622.49 401.244 622.72 402.148 622.954C409.254 653.25 405.836 686.667 385.887 725.306L386.847 725.471C406.769 686.886 410.247 653.502 403.236 623.235C404.127 623.469 405.004 623.706 405.885 623.944C414.715 653.458 412.377 686.445 392.313 725.306L393.273 725.471C413.303 686.677 415.72 653.728 407.013 624.245C407.874 624.48 408.722 624.719 409.572 624.958C420.159 653.674 418.923 686.22 398.743 725.306L399.703 725.471C419.84 686.469 421.171 653.968 410.736 625.287C411.557 625.521 412.379 625.755 413.19 625.993C425.571 653.895 425.469 685.989 405.17 725.306L406.13 725.471C426.372 686.264 426.608 654.222 414.421 626.361C415.195 626.592 415.975 626.82 416.741 627.055C430.957 654.124 432.018 685.754 411.597 725.306L412.557 725.471C432.909 686.053 432.004 654.485 418.03 627.458C418.775 627.69 419.516 627.926 420.252 628.162C436.327 654.377 438.563 685.526 418.025 725.306L418.984 725.471C439.441 685.85 437.397 654.769 421.615 628.596C422.307 628.822 422.982 629.056 423.665 629.285C441.652 654.63 445.117 685.285 424.453 725.306L425.413 725.471C445.97 685.656 442.759 655.083 425.151 629.784C425.784 630.002 426.411 630.222 427.036 630.443C446.964 654.898 451.667 685.045 430.88 725.306L431.841 725.471C452.492 685.472 448.098 655.425 428.653 631.02C429.203 631.219 429.762 631.414 430.308 631.615C452.236 655.163 458.224 684.791 437.307 725.306L438.267 725.471C459.001 685.313 453.443 655.809 432.162 632.321C432.616 632.493 433.074 632.664 433.522 632.839C457.478 655.456 464.782 684.544 443.736 725.306L444.697 725.471C465.499 685.181 458.77 656.246 435.673 633.693C436.019 633.832 436.364 633.973 436.708 634.113C462.707 655.776 471.33 684.31 450.164 725.306L451.124 725.471C471.969 685.096 464.091 656.762 439.23 635.164C439.405 635.239 439.578 635.316 439.751 635.391C467.881 656.083 477.893 684.047 456.59 725.306L457.551 725.471C478.238 685.402 469.587 657.813 443.543 637.242C473.227 656.901 484.262 684.158 463.019 725.306L463.978 725.471C484.229 686.247 475.365 659.577 449.027 640.076C479.019 658.657 490.256 685.001 469.447 725.306L470.407 725.471C490.206 687.121 481.2 661.347 454.71 642.858C484.863 660.423 496.233 685.874 475.874 725.306L476.834 725.471C499.296 681.967 483.468 655.373 446.449 637.62C444.674 636.602 442.827 635.615 440.939 634.643C439.217 633.585 437.453 632.543 435.62 631.529C433.97 630.441 432.255 629.377 430.503 628.329C428.873 627.172 427.2 626.03 425.469 624.912C423.93 623.733 422.342 622.573 420.711 621.429C419.193 620.166 417.624 618.922 416.012 617.694C414.591 616.411 413.135 615.141 411.63 613.888C410.245 612.519 408.805 611.169 407.335 609.829C406.012 608.396 404.653 606.975 403.251 605.57C402.04 604.125 400.796 602.691 399.514 601.27C398.352 599.728 397.144 598.201 395.912 596.683C394.814 595.055 393.682 593.44 392.516 591.834C391.51 590.153 390.478 588.48 389.409 586.818C388.502 585.096 387.574 583.38 386.61 581.674C385.79 579.875 384.948 578.083 384.072 576.299C383.346 574.428 382.596 572.562 381.819 570.705C381.188 568.755 380.537 566.81 379.857 564.871C379.343 562.91 378.802 560.954 378.247 559.002C377.818 556.89 377.363 554.783 376.891 552.68C376.575 550.531 376.237 548.386 375.88 546.244C370.289 486.296 351.027 428.205 331.911 370.569C306.79 294.836 281.932 219.89 288.732 142.567C342.369 99.5964 404.707 52.352 476.745 0.360085L475.966 -2.96368e-05C404.32 51.7084 342.282 98.7199 288.836 141.515C288.919 140.594 289.012 139.672 289.106 138.75C340.735 96.8904 400.794 50.9227 470.32 0.360085L469.537 -2.96368e-05C400.409 50.2726 340.649 96.0037 289.21 137.683C289.308 136.76 289.416 135.836 289.522 134.912C339.132 94.1678 396.9 49.482 463.893 0.358951L463.106 0.0013873C396.528 48.8195 339.065 93.2583 289.652 133.812C289.762 132.894 289.86 131.975 289.98 131.057C337.557 91.4312 393.027 48.0305 457.466 0.357463L456.68 0.00216661C392.673 47.3554 337.512 90.499 290.137 129.921C290.26 128.995 290.394 128.068 290.527 127.141C336.047 88.6517 389.202 46.5495 451.04 0.35633L450.249 0.00315847C388.852 45.8673 336.003 87.7078 290.688 125.985C290.826 125.054 290.976 124.122 291.123 123.19C334.567 85.8508 385.416 45.0466 444.616 0.355125L443.821 0.00443371C385.086 44.3448 334.545 84.8735 291.317 121.985C291.464 121.084 291.602 120.183 291.757 119.28C333.14 83.0612 381.588 43.5797 438.189 0.353992L437.389 0.00549641C381.263 42.8684 333.153 82.0522 291.986 118.032C292.15 117.11 292.32 116.188 292.494 115.265C331.77 80.206 377.85 42.0516 431.765 0.353283L430.961 0.00648827C377.524 41.3356 331.787 79.183 292.726 113.996C292.905 113.072 293.099 112.147 293.288 111.222C330.444 77.3286 374.139 40.5088 425.34 0.350662L424.532 0.00868452C373.829 39.7764 330.495 76.2686 293.56 109.899C293.752 108.984 293.938 108.069 294.139 107.153C329.16 74.4301 370.454 38.9528 418.913 0.349174L418.101 0.00981807C370.161 38.2001 329.248 73.3252 294.456 105.765C294.661 104.852 294.867 103.939 295.083 103.025C327.946 71.4873 366.811 37.3712 412.488 0.34719L411.672 0.0124394C366.523 36.6091 328.047 70.3585 295.415 101.598C295.636 100.684 295.877 99.7666 296.107 98.8514C326.794 68.509 363.205 35.7682 406.061 0.344569L405.242 0.0146356C362.936 34.9834 326.934 67.3292 296.486 97.3493C296.714 96.4676 296.946 95.5857 297.183 94.7033C325.693 65.5395 359.594 34.1821 399.639 0.343081L398.812 0.0166194C359.387 33.3318 325.885 64.2551 297.641 93.0409C297.874 92.1975 298.098 91.3544 298.34 90.51C324.651 62.5345 356.023 32.572 393.213 0.339043L392.379 0.0198783C355.846 31.6809 324.899 61.165 298.865 88.7198C299.108 87.8943 299.358 87.0678 299.609 86.2415C323.695 59.4736 352.505 30.9279 386.789 0.336847L385.95 0.0224288C352.347 30.0054 323.982 58.0331 300.177 84.3435C300.426 83.5429 300.696 82.7411 300.953 81.9402C322.795 56.3865 349.026 29.2642 380.367 0.332525L379.517 0.0272464C348.918 28.2736 323.178 54.7992 301.639 79.825C301.884 79.0814 302.127 78.3378 302.38 77.5933C321.954 53.2639 345.587 27.5781 373.942 0.327849L373.084 0.0311429C345.549 26.4928 322.468 51.4797 303.22 75.1856C303.456 74.5118 303.685 73.838 303.927 73.1633C321.206 50.0784 342.21 25.8537 367.521 0.323103L366.651 0.0358188C342.257 24.6421 321.88 48.0298 304.956 70.3612C305.169 69.7855 305.384 69.2093 305.602 68.6326C320.559 46.8169 338.892 24.0868 361.099 0.31701L360.217 0.0427618C339.075 22.6727 321.473 44.3522 306.916 65.2071C307.048 64.8702 307.186 64.5324 307.321 64.1956C319.951 43.6099 335.567 22.3507 354.678 0.308437L353.785 0.0509092C336.25 20.276 321.66 39.8405 309.606 58.8328C319.804 39.7656 332.54 20.2792 348.259 0.29859L347.345 0.0608986C333.87 17.191 322.586 33.9578 313.203 50.4089C320.76 33.8665 330.207 17.1691 341.839 0.286262L340.911 0.0735093C327.08 20.1441 316.323 39.9526 308.172 59.5476C306.471 62.7468 304.831 65.9367 303.27 69.1131C301.262 72.5037 299.364 75.869 297.51 79.2242C295.277 82.7002 293.114 86.1572 291.05 89.5867C288.541 93.2292 286.106 96.8487 283.792 100.431C281.128 104.108 278.589 107.742 276.114 111.355C273.335 115.032 270.644 118.677 268.048 122.288C265.005 126.156 262.051 129.99 259.218 133.778C255.957 137.793 252.839 141.752 249.807 145.677C246.632 149.49 243.555 153.263 240.583 156.993C237.332 160.8 234.17 164.571 231.12 168.294C227.15 172.824 223.373 177.271 219.701 181.672C216.203 185.614 212.809 189.508 209.531 193.352C206.012 197.247 202.599 201.095 199.287 204.897C195.133 209.418 191.102 213.883 187.223 218.277C183.307 222.485 179.511 226.637 175.847 230.728C171.841 234.98 167.949 239.178 164.201 243.308C160.067 247.646 156.044 251.932 152.178 256.142C148.118 260.366 144.158 264.542 140.344 268.647C136.315 272.798 132.392 276.897 128.6 280.933C124.516 285.097 120.566 289.195 116.722 293.24C-37.365 448.827 -20.027 519.683 60.3828 556.857C112.095 580.764 189.842 590.711 264.851 600.308C303.418 605.242 341.25 610.087 374.429 616.69C370.384 652.021 360.082 688.138 340.893 725.306L341.853 725.471Z" fill="url(#paint0_linear_208_15)"/>
<defs>
<linearGradient id="paint0_linear_208_15" x1="-408.897" y1="244.94" x2="165.256" y2="953.916" gradientUnits="userSpaceOnUse">
<stop stop-color="#0A767B"/>
<stop offset="1" stop-color="#00A7D6"/>
</linearGradient>
</defs>
</svg>
